<svg width="152" height="56" viewBox="0 0 152 56" fill="none" xmlns="http://www.w3.org/2000/svg">
<path d="M152 4.12469C152 1.86745 150.133 0.0573071 147.877 0.126576L4.26483 4.53573C1.95528 4.60664 0.186003 6.61401 0.405709 8.91418L4.55748 52.3803C4.75353 54.4328 6.47755 56 8.53936 56H137.928C139.081 56 140.178 55.5025 140.937 54.635L151.009 43.1313C151.648 42.402 152 41.4657 152 40.4963V4.12469Z" fill="#DFFF1B"/>
<path d="M38.42 35.7C34.64 35.7 31.3 32.84 31.3 28.52C31.3 24.16 34.66 21.3 38.38 21.3C40.64 21.3 42.64 22.2 44 24.08L42.18 25.7C41.32 24.28 39.96 23.64 38.42 23.64C35.94 23.64 33.76 25.52 33.76 28.52C33.76 31.48 35.98 33.36 38.42 33.36C40.02 33.36 41.32 32.56 42.18 31.24L44.08 32.78C42.78 34.72 40.72 35.7 38.42 35.7ZM51.8083 35.7C48.0483 35.7 44.6883 32.86 44.6883 28.5C44.6883 24.18 48.0483 21.3 51.8083 21.3C55.5483 21.3 58.9283 24.18 58.9283 28.5C58.9283 32.86 55.5483 35.7 51.8083 35.7ZM47.1483 28.5C47.1483 31.5 49.3283 33.36 51.8083 33.36C54.2683 33.36 56.4683 31.5 56.4683 28.5C56.4683 25.54 54.2683 23.64 51.8083 23.64C49.3283 23.64 47.1483 25.54 47.1483 28.5ZM60.632 35.5V21.5H63.012V31.64L69.012 21.5H71.332V35.5H68.952V26.3L63.552 35.5H60.632ZM77.5473 35.5V23.76H72.8273V21.5H84.6473V23.76H79.9273V35.5H77.5473ZM82.832 35.5L86.952 21.5H89.732L94.192 35.5H91.712L91.192 33.68H85.752L85.272 35.5H82.832ZM86.352 31.42H90.532L88.352 23.88L86.352 31.42ZM101.104 35.7C97.3236 35.7 93.9836 32.84 93.9836 28.52C93.9836 24.16 97.3436 21.3 101.064 21.3C103.324 21.3 105.324 22.2 106.684 24.08L104.864 25.7C104.004 24.28 102.644 23.64 101.104 23.64C98.6236 23.64 96.4436 25.52 96.4436 28.52C96.4436 31.48 98.6636 33.36 101.104 33.36C102.704 33.36 104.004 32.56 104.864 31.24L106.764 32.78C105.464 34.72 103.404 35.7 101.104 35.7ZM112.087 35.5V23.76H107.367V21.5H119.187V23.76H114.467V35.5H112.087Z" fill="#0B0705"/>
</svg>
