<svg width="642" height="271" viewBox="0 0 642 271" fill="none" xmlns="http://www.w3.org/2000/svg">
<g clip-path="url(#clip0_421_813)">
<path d="M141.84 2.04042L140.328 4.05642V17.2324H138.72V4.05642L137.184 2.04042H132.96V0.432421H137.952L139.512 2.44842L141.072 0.432421H146.136V2.04042H141.84ZM157.438 17.2324V8.44842L155.95 7.34442H151.462L149.878 9.04842V17.2084H148.294V0.45642H149.878V6.86442L150.958 5.76042H156.454L159.022 7.65642V17.2324H157.438ZM162.552 11.9524V14.5204L164.04 15.6244H169.464L171.048 14.3044L172.08 15.5524L170.04 17.2324H163.512L160.944 15.3124V7.65642L163.512 5.78442H170.04L172.368 7.70442V11.9524H162.552ZM170.784 8.44842L169.464 7.34442H164.04L162.552 8.47242V10.4404H170.784V8.44842ZM194.21 9.67242H185.738V17.2324H184.13V0.432421H195.77L196.97 3.33642V5.71242L194.21 9.67242ZM195.386 3.62442L194.714 2.04042H185.738V8.06442H193.37L195.386 5.20842V3.62442ZM206.546 8.11242L205.49 7.34442H202.202L200.714 8.47242V17.2324H199.13V5.76042H200.714V6.84042L202.058 5.76042H206.042L207.482 6.86442L206.546 8.11242ZM210.904 11.9524V14.5204L212.392 15.6244H217.816L219.4 14.3044L220.432 15.5524L218.392 17.2324H211.864L209.296 15.3124V7.65642L211.864 5.78442H218.392L220.72 7.70442V11.9524H210.904ZM219.136 8.44842L217.816 7.34442H212.392L210.904 8.47242V10.4404H219.136V8.44842ZM229.088 17.2324H227.144L222.632 12.1204V5.76042H224.24V11.4964L227.84 15.6244H228.344L231.704 11.5684V5.76042H233.264V12.1444L229.088 17.2324ZM235.458 4.12842V2.40042H236.898V4.12842H235.458ZM235.434 17.2324V5.76042H236.898V17.2324H235.434ZM247.726 17.2804H241.63L239.062 15.3604V7.65642L241.63 5.78442H247.726L250.294 7.65642V15.3604L247.726 17.2804ZM248.71 8.47242L247.198 7.34442H242.182L240.67 8.47242V14.5444L242.182 15.6724H247.198L248.71 14.5444V8.47242ZM261.378 17.2084V16.2004L260.034 17.2324H254.778L252.21 15.3124V5.76042H253.818V14.4004L255.306 15.6244H259.866L261.378 14.4004V5.78442H262.938V17.2084H261.378ZM272.973 17.2324H265.293V15.7204H272.445L273.741 14.6404V13.4884L272.421 12.2644H267.261L265.101 10.3204V7.75242L267.261 5.80842H274.677V7.32042H267.861L266.637 8.40042V9.67242L267.861 10.7524H273.021L275.253 12.8164V15.3604L272.973 17.2324ZM289.396 17.2324L287.02 14.1124V3.52842L289.396 0.432421H297.532V2.04042H290.212L288.652 4.08042V8.06442H295.78V9.67242H288.652V13.5604L290.212 15.6244H297.532V17.2324H289.396ZM309.3 17.2084V16.3204L308.1 17.2324H301.812L299.46 15.2884V7.65642L301.812 5.76042H308.148L309.3 6.86442V0.504421H310.884V17.2084H309.3ZM309.3 9.04842L307.716 7.34442H302.364L301.068 8.42442V14.5444L302.388 15.6244H307.788L309.3 14.3764V9.04842ZM313.318 4.12842V2.40042H314.758V4.12842H313.318ZM313.294 17.2324V5.76042H314.758V17.2324H313.294ZM321.385 7.34442V17.2324H319.801V7.34442H316.921V5.76042H319.801V0.45642H321.385V5.76042H324.361V7.34442H321.385ZM326.537 4.12842V2.40042H327.977V4.12842H326.537ZM326.513 17.2324V5.76042H327.977V17.2324H326.513ZM338.804 17.2804H332.708L330.14 15.3604V7.65642L332.708 5.78442H338.804L341.372 7.65642V15.3604L338.804 17.2804ZM339.788 8.47242L338.276 7.34442H333.26L331.748 8.47242V14.5444L333.26 15.6724H338.276L339.788 14.5444V8.47242ZM352.696 17.2324V8.47242L351.184 7.34442H346.648L345.136 8.47242V17.2084H343.528V5.78442H345.136V6.79242L346.408 5.78442H351.688L354.28 7.65642V17.2324H352.696ZM374.476 17.2804H368.38L365.812 15.3604V7.65642L368.38 5.78442H374.476L377.044 7.65642V15.3604L374.476 17.2804ZM375.46 8.47242L373.948 7.34442H368.932L367.42 8.47242V14.5444L368.932 15.6724H373.948L375.46 14.5444V8.47242ZM383.304 7.36842V17.2324H381.72V7.36842H378.84V5.76042H381.72V3.48042L384.072 0.432421H386.28V2.01642H384.84L383.304 4.03242V5.76042H386.28V7.36842H383.304ZM406.449 2.04042L404.937 4.05642V17.2324H403.329V4.05642L401.793 2.04042H397.569V0.432421H402.561L404.121 2.44842L405.681 0.432421H410.745V2.04042H406.449ZM412.232 11.9524V14.5204L413.72 15.6244H419.144L420.728 14.3044L421.76 15.5524L419.72 17.2324H413.192L410.624 15.3124V7.65642L413.192 5.78442H419.72L422.048 7.70442V11.9524H412.232ZM420.464 8.44842L419.144 7.34442H413.72L412.232 8.47242V10.4404H420.464V8.44842ZM433.344 17.2804H426.792L424.2 15.3604V7.65642L426.792 5.76042H433.344L435.672 7.70442V9.79242H434.088V8.44842L432.768 7.34442H427.296L425.808 8.47242V14.5444L427.296 15.6724H432.768L434.088 14.5924V13.2484H435.672V15.3364L433.344 17.2804ZM447.219 17.2324V8.44842L445.731 7.34442H441.243L439.659 9.04842V17.2084H438.075V0.45642H439.659V6.86442L440.739 5.76042H446.235L448.803 7.65642V17.2324H447.219ZM453.318 17.2324L450.966 14.1604V0.432421H452.502V13.6084L454.086 15.6244H455.886V17.2324H453.318ZM459.177 11.9524V14.5204L460.665 15.6244H466.089L467.673 14.3044L468.705 15.5524L466.665 17.2324H460.137L457.569 15.3124V7.65642L460.137 5.78442H466.665L468.993 7.70442V11.9524H459.177ZM467.409 8.44842L466.089 7.34442H460.665L459.177 8.47242V10.4404H467.409V8.44842ZM475.369 7.34442V17.2324H473.785V7.34442H470.905V5.76042H473.785V0.45642H475.369V5.76042H478.345V7.34442H475.369ZM480.521 4.12842V2.40042H481.961V4.12842H480.521ZM480.497 17.2324V5.76042H481.961V17.2324H480.497ZM493.508 17.2804H486.956L484.364 15.3604V7.65642L486.956 5.76042H493.508L495.836 7.70442V9.79242H494.252V8.44842L492.932 7.34442H487.46L485.972 8.47242V14.5444L487.46 15.6724H492.932L494.252 14.5924V13.2484H495.836V15.3364L493.508 17.2804ZM505.871 17.2324H498.191V15.7204H505.343L506.639 14.6404V13.4884L505.319 12.2644H500.159L497.999 10.3204V7.75242L500.159 5.80842H507.575V7.32042H500.759L499.535 8.40042V9.67242L500.759 10.7524H505.919L508.151 12.8164V15.3604L505.871 17.2324Z" fill="white"/>
<path d="M107.836 89.9172C96.1264 89.9172 85.7862 81.6314 84.1427 68.7575H79.8971V61.0195H84.2797C86.1971 48.5566 96.8796 40.6131 107.973 40.6131C116.601 40.6131 123.586 43.9686 128.516 50.6109L122.011 55.8837C118.587 51.3642 114.136 48.625 107.905 48.625C101.125 48.625 94.5514 53.35 92.8394 61.0195H130.16V68.4152C130.16 78.9607 121.943 89.9172 107.836 89.9172ZM92.634 68.7575C94.072 76.9064 100.509 81.9053 108.247 81.9053C115.163 81.9053 121.874 77.6597 121.874 68.7575H92.634ZM138.052 89.2324V41.2979H146.201V81.4944H152.364V89.2324H138.052ZM159.182 89.2324V81.4944H162.263V49.0359H159.182V41.2979H173.493V49.0359H170.412V81.4944H173.493V89.2324H159.182ZM179.318 89.2324L191.165 41.2979H199.999L207.874 76.8379L215.269 41.2979H223.829L236.36 89.2324H227.732L219.652 57.3217L212.736 89.2324H203.217L195.479 57.3217L187.947 89.2324H179.318ZM242.882 89.2324V41.2979H257.879C268.973 41.2979 275.752 48.9674 275.752 58.075C275.752 67.9358 268.973 74.9205 257.879 74.9205H251.031V89.2324H242.882ZM251.031 67.1825H257.948C263.426 67.1825 267.329 64.0326 267.329 58.075C267.329 52.8707 263.426 49.0359 257.948 49.0359H251.031V67.1825ZM295.955 89.9172C289.176 89.9172 283.835 86.2879 280.206 80.5357L286.711 75.3999C288.834 79.0292 292.395 82.0422 296.092 82.0422C299.653 82.0422 301.982 79.6455 301.982 76.564C301.982 73.7564 300.27 71.9075 297.325 70.401L291.162 67.3195C286.848 65.1282 282.191 60.8141 282.191 54.2402C282.191 46.9131 287.875 40.6131 296.161 40.6131C303.146 40.6131 308.213 44.174 311.979 50.337L305.474 55.4728C303.214 51.1587 299.585 48.4881 296.161 48.4881C292.326 48.4881 290.546 50.9533 290.546 53.6924C290.546 56.0207 291.71 58.075 294.997 59.7185L301.571 63.0054C306.227 65.3336 310.336 69.4423 310.336 76.2216C310.336 83.9596 304.652 89.9172 295.955 89.9172ZM318.81 89.2324V41.2979H349.146V49.0359H326.959V61.0195H344.558V68.7575H326.959V81.4944H349.146V89.2324H318.81ZM378.538 89.2324V81.4944H381.62V49.0359H378.538V41.2979H392.85V49.0359H389.768V81.4944H392.85V89.2324H378.538ZM402.441 89.2324V41.2979H410.59V76.0162L431.133 41.2979H439.077V89.2324H430.928V57.7326L412.439 89.2324H402.441ZM462.412 89.2324V49.0359H446.251V41.2979H486.721V49.0359H470.561V89.2324H462.412ZM513.123 89.9172C500.249 89.9172 488.745 80.1933 488.745 65.2652C488.745 50.474 500.249 40.6131 513.123 40.6131C525.928 40.6131 537.501 50.474 537.501 65.2652C537.501 80.1933 525.928 89.9172 513.123 89.9172ZM497.167 65.2652C497.167 75.5368 504.632 81.9053 513.123 81.9053C521.546 81.9053 529.078 75.5368 529.078 65.2652C529.078 55.1304 521.546 48.625 513.123 48.625C504.632 48.625 497.167 55.1304 497.167 65.2652ZM22.9698 160.232V120.036H6.809V112.298H47.2794V120.036H31.1186V160.232H22.9698ZM76.9314 160.232V139.758H60.0858L55.4294 160.232H47.2805L51.937 139.758H47.2805V132.02H53.7174L58.2369 112.298H66.3858L61.8663 132.02H76.9314V112.298H85.0803V160.232H76.9314ZM95.3808 160.232V112.298H125.717V120.036H103.53V132.02H121.129V139.758H103.53V152.494H125.717V160.232H95.3808ZM152.028 160.232L163.874 112.298H172.708L180.583 147.838L187.978 112.298H196.538L209.07 160.232H200.441L192.361 128.322L185.445 160.232H175.926L168.188 128.322L160.656 160.232H152.028ZM215.592 160.232V112.298H245.927V120.036H223.74V132.02H241.339V139.758H223.74V152.494H245.927V160.232H215.592ZM250.357 160.232L262.204 112.298H271.038L278.913 147.838L286.308 112.298H294.868L307.4 160.232H298.771L290.691 128.322L283.775 160.232H274.256L266.518 128.322L258.986 160.232H250.357ZM333.161 160.917C320.287 160.917 308.783 151.193 308.783 136.265C308.783 121.474 320.287 111.613 333.161 111.613C345.966 111.613 357.539 121.474 357.539 136.265C357.539 151.193 345.966 160.917 333.161 160.917ZM317.206 136.265C317.206 146.537 324.67 152.905 333.161 152.905C341.584 152.905 349.116 146.537 349.116 136.265C349.116 126.13 341.584 119.625 333.161 119.625C324.67 119.625 317.206 126.13 317.206 136.265ZM365.427 160.232V112.298H383.163C392.544 112.298 397.201 118.666 397.201 124.966C397.201 131.266 392.613 137.703 383.437 137.703H373.576V139.758H385.491L389.052 152.494H395.283V160.232H383.026V159.959L379.533 147.496H373.576V160.232H365.427ZM373.576 129.965H383.231C386.929 129.965 388.778 127.5 388.778 124.966C388.778 122.501 386.929 120.036 383.231 120.036H373.576V129.965ZM404.077 160.232V152.494H407.158V120.036H404.077V112.298H418.389V120.036H415.307V152.494H418.389V160.232H404.077ZM427.98 160.232V112.298H458.316V120.036H436.129V132.02H453.728V139.758H436.129V152.494H458.316V160.232H427.98ZM478.646 160.917C471.866 160.917 466.525 157.288 462.896 151.536L469.401 146.4C471.524 150.029 475.085 153.042 478.782 153.042C482.343 153.042 484.672 150.646 484.672 147.564C484.672 144.756 482.96 142.908 480.015 141.401L473.852 138.32C469.538 136.128 464.881 131.814 464.881 125.24C464.881 117.913 470.565 111.613 478.851 111.613C485.836 111.613 490.903 115.174 494.669 121.337L488.164 126.473C485.904 122.159 482.275 119.488 478.851 119.488C475.016 119.488 473.236 121.953 473.236 124.692C473.236 127.021 474.4 129.075 477.687 130.718L484.261 134.005C488.917 136.334 493.026 140.442 493.026 147.222C493.026 154.96 487.342 160.917 478.646 160.917ZM523.381 160.232V112.298H531.53V148.112L542.76 122.433H552.278L562.55 148.043V112.298H570.699V160.232H559.126L547.553 131.129L535.091 160.232H523.381ZM580.972 160.232V112.298H611.307V120.036H589.121V132.02H606.719V139.758H589.121V152.494H611.307V160.232H580.972ZM92.7803 230.232V209.758H75.9347L71.2782 230.232H63.1294L67.7859 209.758H63.1294V202.02H69.5663L74.0858 182.298H82.2347L77.7152 202.02H92.7803V182.298H100.929V230.232H92.7803ZM107.463 230.232L121.57 182.298H131.088L146.359 230.232H137.868L136.087 224.001H117.461L115.818 230.232H107.463ZM119.516 216.263H133.827L126.363 190.447L119.516 216.263ZM155.47 230.232L144.993 182.298H153.347L161.359 219.413L175.808 182.298H184.162L165.262 230.232H155.47ZM189.966 230.232V182.298H220.302V190.036H198.115V202.02H215.714V209.758H198.115V222.494H220.302V230.232H189.966ZM272.36 230.917C259.418 230.917 247.982 221.125 247.982 206.334C247.982 191.405 259.486 181.613 272.223 181.613C279.961 181.613 286.809 184.695 291.466 191.132L285.234 196.678C282.29 191.816 277.633 189.625 272.36 189.625C263.869 189.625 256.405 196.062 256.405 206.334C256.405 216.468 264.006 222.905 272.36 222.905C277.839 222.905 282.29 220.166 285.234 215.647L291.74 220.919C287.288 227.562 280.235 230.917 272.36 230.917ZM298.942 230.232V182.298H316.678C326.059 182.298 330.716 188.666 330.716 194.966C330.716 201.266 326.128 207.703 316.952 207.703H307.091V209.758H319.006L322.567 222.494H328.798V230.232H316.541V229.959L313.048 217.496H307.091V230.232H298.942ZM307.091 199.965H316.746C320.444 199.965 322.293 197.5 322.293 194.966C322.293 192.501 320.444 190.036 316.746 190.036H307.091V199.965ZM338.277 230.232V182.298H368.612V190.036H346.425V202.02H364.024V209.758H346.425V222.494H368.612V230.232H338.277ZM373.042 230.232L387.149 182.298H396.667L411.938 230.232H403.447L401.666 224.001H383.04L381.397 230.232H373.042ZM385.095 216.263H399.406L391.942 190.447L385.095 216.263ZM423.94 230.232V190.036H407.779V182.298H448.249V190.036H432.089V230.232H423.94ZM455.411 230.232V182.298H485.747V190.036H463.56V202.02H481.159V209.758H463.56V222.494H485.747V230.232H455.411ZM492.231 230.232L497.367 190.036H492.231V182.298H507.502C522.704 182.298 529.894 193.802 529.894 205.58C529.894 217.769 522.156 230.232 507.502 230.232H492.231ZM501.407 222.494H507.57C516.541 222.494 521.471 213.866 521.471 205.512C521.471 197.637 517.089 190.036 507.57 190.036H505.516L501.407 222.494ZM546.014 230.917C542.042 230.917 538.344 227.63 538.344 223.248C538.344 218.865 542.042 215.647 546.014 215.647C549.986 215.647 553.615 218.865 553.615 223.248C553.615 227.63 549.986 230.917 546.014 230.917Z" fill="white"/>
<rect width="57.6372" height="54.3245" transform="matrix(0.630896 -0.775868 0.763824 0.645424 295 142.405)" fill="#DFFF1B"/>
<rect x="0.402391" y="-0.0376342" width="50.9285" height="47.9683" transform="matrix(0.630896 -0.775868 0.763824 0.645424 299.177 142.191)" stroke="#0B0705" stroke-width="0.57702"/>
<path d="M326.941 127.723L331.691 127.723L331.691 136.561C331.691 136.568 331.692 136.575 331.694 136.581L333.307 140.916C333.327 140.968 333.267 141.014 333.221 140.983L330.228 138.914L328.656 137.743L327.142 136.572C326.941 136.114 326.941 135.639 326.941 135.639L326.941 134.495L326.941 127.723Z" fill="#232323"/>
<path d="M338.742 154C338.914 153.171 333.942 142 333.942 142L330.628 143.028L334.457 148.886C334.457 148.886 338.571 154.828 338.742 154Z" fill="#232323"/>
<path d="M319.998 124.127L345.389 124.127C346.111 124.127 346.696 124.712 346.696 125.434L346.696 127.02L346.696 128.466L346.696 129.19L346.696 129.551C346.696 129.551 346.696 129.243 346.696 129.913C346.696 130.583 345.997 131.429 345.997 131.429L342.274 128.636L342.274 127.488L342.274 127.53L319.998 127.53L319.998 124.127Z" fill="#232323"/>
<path d="M336.227 142.286C336.02 141.983 337.621 138.772 337.884 138.286C342.227 130.257 342.227 130.257 342.227 130.257L342.227 130.257L343.998 134.4C343.998 134.4 336.655 142.915 336.227 142.286Z" fill="#232323"/>
<path d="M319.998 124.127L345.389 124.127C346.111 124.127 346.696 124.712 346.696 125.434L346.696 125.471L319.998 127.123L319.998 124.127Z" fill="#292929"/>
<path d="M337.883 138.285L342.222 130.245L343.997 134.4L343.197 135.314L337.883 138.285Z" fill="#292929"/>
<path d="M338.74 154C338.915 153.171 333.941 142 333.941 142L331.826 142.657L334.455 148.886C334.455 148.886 338.565 154.828 338.74 154Z" fill="#292929"/>
<path d="M327.006 127.722L331.69 128.571L331.69 136.561C331.69 136.568 331.692 136.574 331.694 136.581L333.307 140.915C333.326 140.968 333.267 141.014 333.221 140.982L330.227 138.914L327.006 127.722Z" fill="#292929"/>
<path d="M327.471 137.368L333.728 141.758L329.929 142.945L327.471 137.368Z" fill="#171717"/>
<path d="M335.459 151.501L337.395 154.011L334.088 154.011L335.459 151.501Z" fill="#171717"/>
<path d="M328.7 140.156L333.129 141.337L333.728 141.757L329.928 142.945L328.7 140.156Z" fill="#151515"/>
<path d="M335.458 151.501L337.393 154.01L335.797 154.01L334.685 152.915L335.458 151.501Z" fill="#151515"/>
<path d="M341.952 128.733L346.567 132.133L345 136.341L341.952 128.733Z" fill="#151515"/>
<path d="M326.941 122L331.675 122L331.675 123.872L326.941 123.872L326.941 122Z" fill="#151515"/>
<path d="M342.334 129.685L346.568 132.133L345.896 133.939L342.334 129.685Z" fill="#171717"/>
</g>
<defs>
<clipPath id="clip0_421_813">
<rect width="641" height="270" fill="white" transform="translate(0.5 0.232422)"/>
</clipPath>
</defs>
</svg>
