<svg width="1440" height="1005" viewBox="0 0 1440 1005" fill="none" xmlns="http://www.w3.org/2000/svg">
<g clip-path="url(#clip0_506_1177)">
<path d="M0 1H1440V1004.09H0V1Z" fill="url(#paint0_linear_506_1177)"/>
<g filter="url(#filter0_b_506_1177)">
<path d="M621.339 345.126H694.476V468.24C694.476 468.24 694.476 486.897 694.476 487.897C694.476 489.397 702.5 505.897 704.5 510.897C710.652 526.278 721 550.397 721 550.397L672.373 516.781L622.5 478.897C619.408 471.848 621.339 467.031 621.339 467.031V345.126Z" fill="url(#paint1_linear_506_1177)"/>
<path d="M803 747.317C803 737.236 766.5 657.397 766.5 657.397L727.5 565.397L678.57 579.554L734.203 666.003C734.203 666.003 803 757.397 803 747.317Z" fill="url(#paint2_linear_506_1177)"/>
<path d="M514.424 289.756H905.451C916.566 289.756 925.576 298.766 925.576 309.881V373.29C925.576 373.29 925.576 368.541 925.576 378.859C925.576 389.177 914.806 402.2 914.806 402.2L857.47 359.195V341.515V342.165H514.424V289.756Z" fill="url(#paint3_linear_506_1177)"/>
<path d="M765 562.897C758.123 562.897 789.161 502.99 789.161 502.99L808.5 468.24L856.684 378.695L882 438.897L823.745 501.202L790.517 537.626C790.517 537.626 768.61 562.897 765 562.897Z" fill="url(#paint4_linear_506_1177)"/>
<path d="M514.424 289.756H905.451C916.566 289.756 925.576 298.766 925.576 309.881L925.576 310.458L514.424 335.902L514.424 289.756Z" fill="url(#paint5_linear_506_1177)"/>
<path d="M789.161 502.99L808.5 468.24L856.684 378.695L882 438.897L867.061 454.8L789.161 502.99Z" fill="url(#paint6_linear_506_1177)"/>
<path d="M803 747.317C803 737.236 766.5 657.397 766.5 657.397L727.5 565.397L696.494 574.464L734.203 666.003C734.203 666.003 803 757.397 803 747.317Z" fill="url(#paint7_linear_506_1177)"/>
<path d="M622.335 345.127L694.477 358.203L694.476 468.24C694.476 468.24 694.476 486.897 694.476 487.897C694.476 489.397 702.5 505.897 704.5 510.897C710.652 526.278 721 550.397 721 550.397L672.373 516.781L622.335 345.127Z" fill="url(#paint8_linear_506_1177)"/>
<path d="M629.489 493.655L725.843 561.263L667.328 579.554L629.489 493.655Z" fill="url(#paint9_linear_506_1177)"/>
<path d="M754.249 706.909L778.777 747.317H729.617L754.249 706.909Z" fill="url(#paint10_linear_506_1177)"/>
<path d="M648.408 536.605L716.619 554.791L725.843 561.263L667.328 579.554L648.408 536.605Z" fill="url(#paint11_linear_506_1177)"/>
<path d="M754.249 706.909L778.777 747.317L754.196 747.317L741.932 727.113L754.249 706.909Z" fill="url(#paint12_linear_506_1177)"/>
<path d="M852.49 360.692L923.557 413.049L899.423 477.854L852.49 360.692Z" fill="url(#paint13_linear_506_1177)"/>
<path d="M621.339 257H694.24V285.825H621.339V257Z" fill="url(#paint14_linear_506_1177)"/>
<path d="M858.357 375.337L923.557 413.049L913.207 440.852L858.357 375.337Z" fill="url(#paint15_linear_506_1177)"/>
</g>
<path d="M1102 229.278L1163.65 197.921L1179.86 221.963L1102 229.278Z" fill="#DFFF1B"/>
<path d="M333.136 195.188L367.87 167.397L371.98 215.778L333.136 195.188Z" fill="white"/>
<path d="M204.275 716.091L240.143 629.398L264.529 671.744L204.275 716.091Z" stroke="#DFFF1B" stroke-dasharray="8 8"/>
<path d="M1198.53 721.918L1148.08 689.497L1157.02 668.956L1198.53 721.918Z" fill="white"/>
<path d="M607.397 895.345L529.165 970.378L522.544 910.687L607.397 895.345Z" fill="#DFFF1B"/>
<path d="M1460 257L-20 257" stroke="#DFFF1B" stroke-opacity="0.5"/>
<path d="M1460 290.397L-20 290.397" stroke="#DFFF1B" stroke-opacity="0.5"/>
<path d="M1460 342.397L-20 342.397" stroke="#DFFF1B" stroke-opacity="0.5"/>
<path d="M1460 747.397L-20 747.397" stroke="#DFFF1B" stroke-opacity="0.5"/>
<path d="M1009.95 1399.04L306.637 -257.866" stroke="#DFFF1B" stroke-opacity="0.5"/>
<path d="M960.185 1113.04L256.869 -543.866" stroke="#DFFF1B" stroke-opacity="0.5"/>
<path d="M281.731 1082.81L1509.33 -233.63" stroke="#DFFF1B" stroke-opacity="0.5"/>
<path d="M621 1063.4V-136.603" stroke="#DFFF1B" stroke-opacity="0.5"/>
<path d="M694 1063.4V-136.603" stroke="#DFFF1B" stroke-opacity="0.5"/>
<path d="M857 1063.4V-136.603" stroke="#DFFF1B" stroke-opacity="0.5"/>
<path d="M926 1063.4V-136.603" stroke="#DFFF1B" stroke-opacity="0.5"/>
<rect x="690" y="253.397" width="8" height="8" fill="#DFFF1B"/>
<rect x="617" y="253.397" width="8" height="8" fill="#DFFF1B"/>
<rect x="617" y="280.397" width="8" height="8" fill="#DFFF1B"/>
<rect x="690" y="280.397" width="8" height="8" fill="#DFFF1B"/>
<rect x="617" y="342.397" width="8" height="8" fill="#DFFF1B"/>
<rect x="690" y="342.397" width="8" height="8" fill="#DFFF1B"/>
<rect x="690" y="484.397" width="8" height="8" fill="#DFFF1B"/>
<rect x="511" y="286.397" width="8" height="8" fill="#DFFF1B"/>
<rect x="617" y="473.397" width="8" height="8" fill="#DFFF1B"/>
<rect x="853" y="338.397" width="8" height="8" fill="#DFFF1B"/>
<rect x="853" y="286.397" width="8" height="8" fill="#DFFF1B"/>
<rect x="922" y="338.397" width="8" height="8" fill="#DFFF1B"/>
<rect x="853" y="459.397" width="8" height="8" fill="#DFFF1B"/>
<rect x="762" y="558.397" width="8" height="8" fill="#DFFF1B"/>
<rect x="728" y="743.397" width="8" height="8" fill="#DFFF1B"/>
<rect x="800" y="743.397" width="8" height="8" fill="#DFFF1B"/>
<rect x="510" y="338.397" width="8" height="8" fill="#DFFF1B"/>
</g>
<path d="M0 1.5H1440V0.5H0V1.5ZM1440 1003.59H0V1004.59H1440V1003.59Z" fill="#DFFF1B" fill-opacity="0.5"/>
<defs>
<filter id="filter0_b_506_1177" x="459.424" y="202" width="521.152" height="601.093" filterUnits="userSpaceOnUse" color-interpolation-filters="sRGB">
<feFlood flood-opacity="0" result="BackgroundImageFix"/>
<feGaussianBlur in="BackgroundImageFix" stdDeviation="27.5"/>
<feComposite in2="SourceAlpha" operator="in" result="effect1_backgroundBlur_506_1177"/>
<feBlend mode="normal" in="SourceGraphic" in2="effect1_backgroundBlur_506_1177" result="shape"/>
</filter>
<linearGradient id="paint0_linear_506_1177" x1="-5.44227e-06" y1="1.39746" x2="1440" y2="1004.4" gradientUnits="userSpaceOnUse">
<stop stop-color="#030402"/>
<stop offset="0.489757" stop-color="#13170B"/>
<stop offset="0.998837" stop-color="#030402"/>
<stop offset="1" stop-color="#030402"/>
</linearGradient>
<linearGradient id="paint1_linear_506_1177" x1="514" y1="257.397" x2="926" y2="747.397" gradientUnits="userSpaceOnUse">
<stop stop-color="white" stop-opacity="0.6"/>
<stop offset="1" stop-color="white" stop-opacity="0.08"/>
</linearGradient>
<linearGradient id="paint2_linear_506_1177" x1="514" y1="257.397" x2="926" y2="747.397" gradientUnits="userSpaceOnUse">
<stop stop-color="white" stop-opacity="0.6"/>
<stop offset="1" stop-color="white" stop-opacity="0.08"/>
</linearGradient>
<linearGradient id="paint3_linear_506_1177" x1="514" y1="257.397" x2="926" y2="747.397" gradientUnits="userSpaceOnUse">
<stop stop-color="white" stop-opacity="0.6"/>
<stop offset="1" stop-color="white" stop-opacity="0.08"/>
</linearGradient>
<linearGradient id="paint4_linear_506_1177" x1="514" y1="257.397" x2="926" y2="747.397" gradientUnits="userSpaceOnUse">
<stop stop-color="white" stop-opacity="0.6"/>
<stop offset="1" stop-color="white" stop-opacity="0.08"/>
</linearGradient>
<linearGradient id="paint5_linear_506_1177" x1="514" y1="257.397" x2="926" y2="747.397" gradientUnits="userSpaceOnUse">
<stop stop-color="white" stop-opacity="0.6"/>
<stop offset="1" stop-color="white" stop-opacity="0.08"/>
</linearGradient>
<linearGradient id="paint6_linear_506_1177" x1="514" y1="257.397" x2="926" y2="747.397" gradientUnits="userSpaceOnUse">
<stop stop-color="white" stop-opacity="0.6"/>
<stop offset="1" stop-color="white" stop-opacity="0.08"/>
</linearGradient>
<linearGradient id="paint7_linear_506_1177" x1="514" y1="257.397" x2="926" y2="747.397" gradientUnits="userSpaceOnUse">
<stop stop-color="white" stop-opacity="0.6"/>
<stop offset="1" stop-color="white" stop-opacity="0.08"/>
</linearGradient>
<linearGradient id="paint8_linear_506_1177" x1="514" y1="257.397" x2="926" y2="747.397" gradientUnits="userSpaceOnUse">
<stop stop-color="white" stop-opacity="0.6"/>
<stop offset="1" stop-color="white" stop-opacity="0.08"/>
</linearGradient>
<linearGradient id="paint9_linear_506_1177" x1="514" y1="257.397" x2="926" y2="747.397" gradientUnits="userSpaceOnUse">
<stop stop-color="white" stop-opacity="0.6"/>
<stop offset="1" stop-color="white" stop-opacity="0.08"/>
</linearGradient>
<linearGradient id="paint10_linear_506_1177" x1="514" y1="257.397" x2="926" y2="747.397" gradientUnits="userSpaceOnUse">
<stop stop-color="white" stop-opacity="0.6"/>
<stop offset="1" stop-color="white" stop-opacity="0.08"/>
</linearGradient>
<linearGradient id="paint11_linear_506_1177" x1="514" y1="257.397" x2="926" y2="747.397" gradientUnits="userSpaceOnUse">
<stop stop-color="white" stop-opacity="0.6"/>
<stop offset="1" stop-color="white" stop-opacity="0.08"/>
</linearGradient>
<linearGradient id="paint12_linear_506_1177" x1="514" y1="257.397" x2="926" y2="747.397" gradientUnits="userSpaceOnUse">
<stop stop-color="white" stop-opacity="0.6"/>
<stop offset="1" stop-color="white" stop-opacity="0.08"/>
</linearGradient>
<linearGradient id="paint13_linear_506_1177" x1="514" y1="257.397" x2="926" y2="747.397" gradientUnits="userSpaceOnUse">
<stop stop-color="white" stop-opacity="0.6"/>
<stop offset="1" stop-color="white" stop-opacity="0.08"/>
</linearGradient>
<linearGradient id="paint14_linear_506_1177" x1="514" y1="257.397" x2="926" y2="747.397" gradientUnits="userSpaceOnUse">
<stop stop-color="white" stop-opacity="0.6"/>
<stop offset="1" stop-color="white" stop-opacity="0.08"/>
</linearGradient>
<linearGradient id="paint15_linear_506_1177" x1="514" y1="257.397" x2="926" y2="747.397" gradientUnits="userSpaceOnUse">
<stop stop-color="white" stop-opacity="0.6"/>
<stop offset="1" stop-color="white" stop-opacity="0.08"/>
</linearGradient>
<clipPath id="clip0_506_1177">
<path d="M0 1H1440V1004.09H0V1Z" fill="white"/>
</clipPath>
</defs>
</svg>
