<svg width="1440" height="1005" viewBox="0 0 1440 1005" fill="none" xmlns="http://www.w3.org/2000/svg">
<g clip-path="url(#clip0_421_847)">
<path d="M0 1.23242H1440V1004.33H0V1.23242Z" fill="url(#paint0_linear_421_847)"/>
<g filter="url(#filter0_b_421_847)">
<path d="M621.339 345.359H694.476V468.472C694.476 468.472 694.476 487.13 694.476 488.13C694.476 489.63 702.5 506.13 704.5 511.13C710.652 526.511 721 550.63 721 550.63L672.373 517.013L622.5 479.13C619.408 472.081 621.339 467.263 621.339 467.263V345.359Z" fill="url(#paint1_linear_421_847)"/>
<path d="M803 747.549C803 737.468 766.5 657.63 766.5 657.63L727.5 565.63L678.57 579.786L734.203 666.236C734.203 666.236 803 757.63 803 747.549Z" fill="url(#paint2_linear_421_847)"/>
<path d="M514.424 289.988H905.451C916.566 289.988 925.576 298.999 925.576 310.114V373.522C925.576 373.522 925.576 368.774 925.576 379.091C925.576 389.409 914.806 402.433 914.806 402.433L857.47 359.427V341.748V342.398H514.424V289.988Z" fill="url(#paint3_linear_421_847)"/>
<path d="M765 563.13C758.123 563.13 789.161 503.223 789.161 503.223L808.5 468.472L856.684 378.927L882 439.13L823.745 501.434L790.517 537.859C790.517 537.859 768.61 563.13 765 563.13Z" fill="url(#paint4_linear_421_847)"/>
<path d="M514.424 289.988H905.451C916.566 289.988 925.576 298.999 925.576 310.114L925.576 310.69L514.424 336.135L514.424 289.988Z" fill="url(#paint5_linear_421_847)"/>
<path d="M789.161 503.223L808.5 468.472L856.684 378.927L882 439.13L867.061 455.032L789.161 503.223Z" fill="url(#paint6_linear_421_847)"/>
<path d="M803 747.549C803 737.468 766.5 657.63 766.5 657.63L727.5 565.63L696.494 574.696L734.203 666.236C734.203 666.236 803 757.63 803 747.549Z" fill="url(#paint7_linear_421_847)"/>
<path d="M622.335 345.359L694.477 358.435L694.476 468.472C694.476 468.472 694.476 487.13 694.476 488.13C694.476 489.63 702.5 506.13 704.5 511.13C710.652 526.511 721 550.63 721 550.63L672.373 517.013L622.335 345.359Z" fill="url(#paint8_linear_421_847)"/>
<path d="M629.489 493.887L725.843 561.495L667.328 579.786L629.489 493.887Z" fill="url(#paint9_linear_421_847)"/>
<path d="M754.249 707.141L778.777 747.549H729.617L754.249 707.141Z" fill="url(#paint10_linear_421_847)"/>
<path d="M648.408 536.837L716.619 555.023L725.843 561.495L667.328 579.786L648.408 536.837Z" fill="url(#paint11_linear_421_847)"/>
<path d="M754.249 707.141L778.777 747.549L754.196 747.549L741.932 727.345L754.249 707.141Z" fill="url(#paint12_linear_421_847)"/>
<path d="M852.49 360.925L923.557 413.282L899.423 478.086L852.49 360.925Z" fill="url(#paint13_linear_421_847)"/>
<path d="M621.339 257.232H694.24V286.058H621.339V257.232Z" fill="url(#paint14_linear_421_847)"/>
<path d="M858.357 375.57L923.557 413.282L913.207 441.085L858.357 375.57Z" fill="url(#paint15_linear_421_847)"/>
</g>
<path d="M1102 229.511L1163.65 198.153L1179.86 222.196L1102 229.511Z" fill="#DFFF1B"/>
<path d="M333.136 195.42L367.87 167.63L371.98 216.01L333.136 195.42Z" fill="white"/>
<path d="M204.275 716.323L240.143 629.63L264.529 671.976L204.275 716.323Z" stroke="#DFFF1B" stroke-dasharray="8 8"/>
<path d="M1198.53 722.15L1148.08 689.729L1157.02 669.188L1198.53 722.15Z" fill="white"/>
<path d="M607.397 895.577L529.165 970.611L522.544 910.92L607.397 895.577Z" fill="#DFFF1B"/>
<path d="M1460 257.232L-20 257.232" stroke="#DFFF1B" stroke-opacity="0.5"/>
<path d="M1460 290.63L-20 290.63" stroke="#DFFF1B" stroke-opacity="0.5"/>
<path d="M1460 342.63L-20 342.63" stroke="#DFFF1B" stroke-opacity="0.5"/>
<path d="M1460 747.63L-20 747.63" stroke="#DFFF1B" stroke-opacity="0.5"/>
<path d="M1009.95 1399.28L306.637 -257.634" stroke="#DFFF1B" stroke-opacity="0.5"/>
<path d="M960.185 1113.28L256.869 -543.633" stroke="#DFFF1B" stroke-opacity="0.5"/>
<path d="M281.731 1083.04L1509.33 -233.397" stroke="#DFFF1B" stroke-opacity="0.5"/>
<path d="M621 1063.63V-136.37" stroke="#DFFF1B" stroke-opacity="0.5"/>
<path d="M694 1063.63V-136.37" stroke="#DFFF1B" stroke-opacity="0.5"/>
<path d="M857 1063.63V-136.37" stroke="#DFFF1B" stroke-opacity="0.5"/>
<path d="M926 1063.63V-136.37" stroke="#DFFF1B" stroke-opacity="0.5"/>
<rect x="690" y="253.63" width="8" height="8" fill="#DFFF1B"/>
<rect x="617" y="253.63" width="8" height="8" fill="#DFFF1B"/>
<rect x="617" y="280.63" width="8" height="8" fill="#DFFF1B"/>
<rect x="690" y="280.63" width="8" height="8" fill="#DFFF1B"/>
<rect x="617" y="342.63" width="8" height="8" fill="#DFFF1B"/>
<rect x="690" y="342.63" width="8" height="8" fill="#DFFF1B"/>
<rect x="690" y="484.63" width="8" height="8" fill="#DFFF1B"/>
<rect x="511" y="286.63" width="8" height="8" fill="#DFFF1B"/>
<rect x="617" y="473.63" width="8" height="8" fill="#DFFF1B"/>
<rect x="853" y="338.63" width="8" height="8" fill="#DFFF1B"/>
<rect x="853" y="286.63" width="8" height="8" fill="#DFFF1B"/>
<rect x="922" y="338.63" width="8" height="8" fill="#DFFF1B"/>
<rect x="853" y="459.63" width="8" height="8" fill="#DFFF1B"/>
<rect x="762" y="558.63" width="8" height="8" fill="#DFFF1B"/>
<rect x="728" y="743.63" width="8" height="8" fill="#DFFF1B"/>
<rect x="800" y="743.63" width="8" height="8" fill="#DFFF1B"/>
<rect x="510" y="338.63" width="8" height="8" fill="#DFFF1B"/>
</g>
<path d="M0 1.73242H1440V0.732422H0V1.73242ZM1440 1003.83H0V1004.83H1440V1003.83Z" fill="#DFFF1B" fill-opacity="0.5"/>
<defs>
<filter id="filter0_b_421_847" x="459.424" y="202.232" width="521.152" height="601.093" filterUnits="userSpaceOnUse" color-interpolation-filters="sRGB">
<feFlood flood-opacity="0" result="BackgroundImageFix"/>
<feGaussianBlur in="BackgroundImageFix" stdDeviation="27.5"/>
<feComposite in2="SourceAlpha" operator="in" result="effect1_backgroundBlur_421_847"/>
<feBlend mode="normal" in="SourceGraphic" in2="effect1_backgroundBlur_421_847" result="shape"/>
</filter>
<linearGradient id="paint0_linear_421_847" x1="-5.44227e-06" y1="1.62988" x2="1440" y2="1004.63" gradientUnits="userSpaceOnUse">
<stop stop-color="#030402"/>
<stop offset="0.489757" stop-color="#13170B"/>
<stop offset="0.998837" stop-color="#030402"/>
<stop offset="1" stop-color="#030402"/>
</linearGradient>
<linearGradient id="paint1_linear_421_847" x1="514" y1="257.63" x2="926" y2="747.63" gradientUnits="userSpaceOnUse">
<stop stop-color="white" stop-opacity="0.6"/>
<stop offset="1" stop-color="white" stop-opacity="0.08"/>
</linearGradient>
<linearGradient id="paint2_linear_421_847" x1="514" y1="257.63" x2="926" y2="747.63" gradientUnits="userSpaceOnUse">
<stop stop-color="white" stop-opacity="0.6"/>
<stop offset="1" stop-color="white" stop-opacity="0.08"/>
</linearGradient>
<linearGradient id="paint3_linear_421_847" x1="514" y1="257.63" x2="926" y2="747.63" gradientUnits="userSpaceOnUse">
<stop stop-color="white" stop-opacity="0.6"/>
<stop offset="1" stop-color="white" stop-opacity="0.08"/>
</linearGradient>
<linearGradient id="paint4_linear_421_847" x1="514" y1="257.63" x2="926" y2="747.63" gradientUnits="userSpaceOnUse">
<stop stop-color="white" stop-opacity="0.6"/>
<stop offset="1" stop-color="white" stop-opacity="0.08"/>
</linearGradient>
<linearGradient id="paint5_linear_421_847" x1="514" y1="257.63" x2="926" y2="747.63" gradientUnits="userSpaceOnUse">
<stop stop-color="white" stop-opacity="0.6"/>
<stop offset="1" stop-color="white" stop-opacity="0.08"/>
</linearGradient>
<linearGradient id="paint6_linear_421_847" x1="514" y1="257.63" x2="926" y2="747.63" gradientUnits="userSpaceOnUse">
<stop stop-color="white" stop-opacity="0.6"/>
<stop offset="1" stop-color="white" stop-opacity="0.08"/>
</linearGradient>
<linearGradient id="paint7_linear_421_847" x1="514" y1="257.63" x2="926" y2="747.63" gradientUnits="userSpaceOnUse">
<stop stop-color="white" stop-opacity="0.6"/>
<stop offset="1" stop-color="white" stop-opacity="0.08"/>
</linearGradient>
<linearGradient id="paint8_linear_421_847" x1="514" y1="257.63" x2="926" y2="747.63" gradientUnits="userSpaceOnUse">
<stop stop-color="white" stop-opacity="0.6"/>
<stop offset="1" stop-color="white" stop-opacity="0.08"/>
</linearGradient>
<linearGradient id="paint9_linear_421_847" x1="514" y1="257.63" x2="926" y2="747.63" gradientUnits="userSpaceOnUse">
<stop stop-color="white" stop-opacity="0.6"/>
<stop offset="1" stop-color="white" stop-opacity="0.08"/>
</linearGradient>
<linearGradient id="paint10_linear_421_847" x1="514" y1="257.63" x2="926" y2="747.63" gradientUnits="userSpaceOnUse">
<stop stop-color="white" stop-opacity="0.6"/>
<stop offset="1" stop-color="white" stop-opacity="0.08"/>
</linearGradient>
<linearGradient id="paint11_linear_421_847" x1="514" y1="257.63" x2="926" y2="747.63" gradientUnits="userSpaceOnUse">
<stop stop-color="white" stop-opacity="0.6"/>
<stop offset="1" stop-color="white" stop-opacity="0.08"/>
</linearGradient>
<linearGradient id="paint12_linear_421_847" x1="514" y1="257.63" x2="926" y2="747.63" gradientUnits="userSpaceOnUse">
<stop stop-color="white" stop-opacity="0.6"/>
<stop offset="1" stop-color="white" stop-opacity="0.08"/>
</linearGradient>
<linearGradient id="paint13_linear_421_847" x1="514" y1="257.63" x2="926" y2="747.63" gradientUnits="userSpaceOnUse">
<stop stop-color="white" stop-opacity="0.6"/>
<stop offset="1" stop-color="white" stop-opacity="0.08"/>
</linearGradient>
<linearGradient id="paint14_linear_421_847" x1="514" y1="257.63" x2="926" y2="747.63" gradientUnits="userSpaceOnUse">
<stop stop-color="white" stop-opacity="0.6"/>
<stop offset="1" stop-color="white" stop-opacity="0.08"/>
</linearGradient>
<linearGradient id="paint15_linear_421_847" x1="514" y1="257.63" x2="926" y2="747.63" gradientUnits="userSpaceOnUse">
<stop stop-color="white" stop-opacity="0.6"/>
<stop offset="1" stop-color="white" stop-opacity="0.08"/>
</linearGradient>
<clipPath id="clip0_421_847">
<path d="M0 1.23242H1440V1004.33H0V1.23242Z" fill="white"/>
</clipPath>
</defs>
</svg>
