<svg width="86" height="80" viewBox="0 0 86 80" fill="none" xmlns="http://www.w3.org/2000/svg">
<rect width="74.3294" height="70.0573" transform="matrix(0.989497 0.144555 -0.163202 0.986593 11.7275 0)" fill="#DFFF1B"/>
<rect x="0.307435" y="0.42086" width="65.6778" height="61.8603" transform="matrix(0.989497 0.144555 -0.163202 0.986593 15.1022 4.20925)" stroke="#0B0705" stroke-width="0.74413"/>
<path d="M35.4668 24.4019L42.072 25.389L40.2348 37.6818C40.2334 37.6913 40.2337 37.7009 40.2356 37.7103L41.578 44.074C41.5942 44.1509 41.5018 44.203 41.4444 44.1492L37.7109 40.6505L35.7689 38.6946L33.9063 36.7506C33.7221 36.0723 33.8214 35.4113 33.8214 35.4113L34.0592 33.8203L35.4668 24.4019Z" fill="#232323"/>
<path d="M46.4162 63.4016C46.827 62.2848 42.2347 45.7142 42.2347 45.7142L37.4114 46.4559L41.5188 55.3978C41.5188 55.3978 46.0055 64.5183 46.4162 63.4016Z" fill="#232323"/>
<path d="M26.5576 17.9583L61.872 23.236C62.8758 23.386 63.5679 24.3214 63.4179 25.3252L63.0882 27.5312L62.7876 29.543L62.6372 30.5488L62.5621 31.0518C62.5621 31.0518 62.6262 30.6229 62.4869 31.5547C62.3476 32.4865 61.1992 33.5174 61.1992 33.5174L56.6015 28.8596L56.8402 27.2629L56.8314 27.3216L25.8502 22.6914L26.5576 17.9583Z" fill="#232323"/>
<path d="M45.3542 46.5866C45.1297 46.1218 48.024 41.9888 48.4905 41.3678C56.1993 31.1043 56.1993 31.1043 56.1993 31.1043L56.1992 31.1044L57.8019 37.2345C57.8019 37.2345 45.8196 47.55 45.3542 46.5866Z" fill="#232323"/>
<path d="M26.5576 17.9584L61.872 23.2361C62.8758 23.3862 63.5679 24.3215 63.4179 25.3253L63.4101 25.3774L25.9348 22.126L26.5576 17.9584Z" fill="#292929"/>
<path d="M48.4901 41.3679L56.1958 31.0864L57.8016 37.2345L56.4989 38.3398L48.4901 41.3679Z" fill="#292929"/>
<path d="M46.4153 63.4011C46.8311 62.2855 42.2343 45.7143 42.2343 45.7143L39.1571 46.1887L41.5183 55.3978C41.5183 55.3978 45.9995 64.5167 46.4153 63.4011Z" fill="#292929"/>
<path d="M35.5557 24.4154L41.8944 26.57L40.2337 37.6819C40.2323 37.6914 40.2326 37.701 40.2346 37.7104L41.5767 44.0741C41.593 44.151 41.5005 44.2031 41.4432 44.1493L37.7097 40.6506L35.5557 24.4154Z" fill="#292929"/>
<path d="M34.1978 37.9257L41.9872 45.3321L36.4558 46.1942L34.1978 37.9257Z" fill="#171717"/>
<path d="M42.3686 59.2426L44.539 63.1353L39.9403 62.448L42.3686 59.2426Z" fill="#171717"/>
<path d="M35.3259 42.0599L41.2407 44.623L41.9864 45.332L36.4549 46.1941L35.3259 42.0599Z" fill="#151515"/>
<path d="M42.3684 59.2425L44.5387 63.1352L42.3188 62.8034L40.9991 61.0481L42.3684 59.2425Z" fill="#151515"/>
<path d="M56.132 28.9275L61.8435 34.6151L58.7892 40.142L56.132 28.9275Z" fill="#151515"/>
<path d="M36.6562 16.4431L43.2401 17.4271L42.8511 20.0303L36.2672 19.0464L36.6562 16.4431Z" fill="#151515"/>
<path d="M56.4639 30.3295L61.8433 34.6153L60.5332 36.9866L56.4639 30.3295Z" fill="#171717"/>
</svg>
