<svg width="28" height="28" viewBox="0 0 28 28" fill="none" xmlns="http://www.w3.org/2000/svg">
<path d="M7.45188 5.52237L7.45236 5.51967L7.78706 3.60766C7.87781 3.08926 8.32016 2.7615 8.77794 2.86313L8.77794 2.86314L8.78054 2.8637L23.8558 6.11303C23.8559 6.11304 23.8559 6.11305 23.856 6.11306C24.3369 6.21693 24.65 6.73747 24.5556 7.26147L24.5551 7.26423L21.6257 23.9986C21.5349 24.517 21.0926 24.8447 20.6348 24.7431L20.6323 24.7426L18.9104 24.3709C18.4279 24.2668 18.111 23.7321 18.215 23.1967C18.215 23.1965 18.2151 23.1963 18.2151 23.1961L20.2082 13.1213L20.4551 11.8729L19.4825 12.6013L6.16991 22.572C5.78947 22.8569 5.24998 22.7617 4.96815 22.2978L3.96835 20.6519C3.68651 20.1879 3.80914 19.5969 4.18958 19.3119L17.5022 9.34129L18.4748 8.61286L17.3398 8.39943L8.17139 6.67528L8.17048 6.67511C7.68162 6.58426 7.35515 6.05988 7.45188 5.52237Z" fill="white" stroke="#0B0705"/>
</svg>
