<svg x="0.0000mm" y="0.0000mm" width="274.1080mm" height="82.8150mm" viewBox="0.0000 0.0000 274.1080 70.8150"
    version="1.1" xmlns="http://www.w3.org/2000/svg" shape-rendering="crispEdges">
    <g fill="white">
    </g>
    <g fill="white">
    </g>
    <g fill="white">
        <rect x="0.0000" y="0.0000" width="1.3229" height="67.1360" />
        <rect x="5.2917" y="0.0000" width="1.3229" height="67.1360" />
        <rect x="7.9375" y="0.0000" width="3.9688" height="67.1360" />
        <rect x="13.2292" y="0.0000" width="3.9688" height="67.1360" />
        <rect x="18.5208" y="0.0000" width="1.3229" height="67.1360" />
        <rect x="21.1667" y="0.0000" width="3.9688" height="67.1360" />
        <rect x="26.4583" y="0.0000" width="1.3229" height="67.1360" />
        <rect x="29.1042" y="0.0000" width="3.9688" height="67.1360" />
        <rect x="37.0417" y="0.0000" width="1.3229" height="67.1360" />
        <rect x="39.6875" y="0.0000" width="1.3229" height="67.1360" />
        <rect x="42.3333" y="0.0000" width="1.3229" height="67.1360" />
        <rect x="47.6250" y="0.0000" width="1.3229" height="67.1360" />
        <rect x="50.2708" y="0.0000" width="1.3229" height="67.1360" />
        <rect x="55.5625" y="0.0000" width="1.3229" height="67.1360" />
        <rect x="60.8542" y="0.0000" width="1.3229" height="67.1360" />
        <rect x="63.5000" y="0.0000" width="1.3229" height="67.1360" />
        <rect x="68.7917" y="0.0000" width="3.9688" height="67.1360" />
        <rect x="74.0833" y="0.0000" width="1.3229" height="67.1360" />
        <rect x="76.7292" y="0.0000" width="1.3229" height="67.1360" />
        <rect x="79.3750" y="0.0000" width="3.9688" height="67.1360" />
        <rect x="84.6667" y="0.0000" width="1.3229" height="67.1360" />
        <rect x="89.9583" y="0.0000" width="1.3229" height="67.1360" />
        <rect x="92.6042" y="0.0000" width="1.3229" height="67.1360" />
        <rect x="97.8958" y="0.0000" width="1.3229" height="67.1360" />
        <rect x="103.1875" y="0.0000" width="1.3229" height="67.1360" />
        <rect x="105.8333" y="0.0000" width="3.9688" height="67.1360" />
        <rect x="111.1250" y="0.0000" width="1.3229" height="67.1360" />
        <rect x="113.7708" y="0.0000" width="3.9688" height="67.1360" />
        <rect x="121.7083" y="0.0000" width="1.3229" height="67.1360" />
        <rect x="124.3542" y="0.0000" width="1.3229" height="67.1360" />
        <rect x="127.0000" y="0.0000" width="1.3229" height="67.1360" />
        <rect x="132.2917" y="0.0000" width="1.3229" height="67.1360" />
        <rect x="134.9375" y="0.0000" width="1.3229" height="67.1360" />
        <rect x="140.2292" y="0.0000" width="1.3229" height="67.1360" />
        <rect x="145.5208" y="0.0000" width="1.3229" height="67.1360" />
        <rect x="148.1667" y="0.0000" width="1.3229" height="67.1360" />
        <rect x="150.8125" y="0.0000" width="1.3229" height="67.1360" />
        <rect x="153.4583" y="0.0000" width="3.9688" height="67.1360" />
        <rect x="158.7500" y="0.0000" width="1.3229" height="67.1360" />
        <rect x="164.0417" y="0.0000" width="3.9688" height="67.1360" />
        <rect x="169.3333" y="0.0000" width="1.3229" height="67.1360" />
        <rect x="174.6250" y="0.0000" width="1.3229" height="67.1360" />
        <rect x="177.2708" y="0.0000" width="1.3229" height="67.1360" />
        <rect x="182.5625" y="0.0000" width="1.3229" height="67.1360" />
        <rect x="187.8542" y="0.0000" width="1.3229" height="67.1360" />
        <rect x="190.5000" y="0.0000" width="1.3229" height="67.1360" />
        <rect x="193.1458" y="0.0000" width="1.3229" height="67.1360" />
        <rect x="195.7917" y="0.0000" width="3.9688" height="67.1360" />
        <rect x="201.0833" y="0.0000" width="3.9688" height="67.1360" />
        <rect x="209.0208" y="0.0000" width="1.3229" height="67.1360" />
        <rect x="211.6667" y="0.0000" width="1.3229" height="67.1360" />
        <rect x="216.9583" y="0.0000" width="1.3229" height="67.1360" />
        <rect x="219.6042" y="0.0000" width="1.3229" height="67.1360" />
        <rect x="224.8958" y="0.0000" width="1.3229" height="67.1360" />
        <rect x="230.1875" y="0.0000" width="1.3229" height="67.1360" />
        <rect x="232.8333" y="0.0000" width="1.3229" height="67.1360" />
        <rect x="235.4792" y="0.0000" width="3.9688" height="67.1360" />
        <rect x="240.7708" y="0.0000" width="1.3229" height="67.1360" />
        <rect x="243.4167" y="0.0000" width="3.9688" height="67.1360" />
        <rect x="251.3542" y="0.0000" width="1.3229" height="67.1360" />
        <rect x="254.0000" y="0.0000" width="1.3229" height="67.1360" />
        <rect x="259.2917" y="0.0000" width="1.3229" height="67.1360" />
        <rect x="261.9375" y="0.0000" width="3.9688" height="67.1360" />
        <rect x="267.2292" y="0.0000" width="3.9688" height="67.1360" />
        <rect x="272.5208" y="0.0000" width="1.3229" height="67.1360" />
    </g>
</svg>