<svg width="56" height="56" viewBox="0 0 56 56" fill="none" xmlns="http://www.w3.org/2000/svg">
<path d="M10.6751 10.675C11.3315 10.0189 12.2216 9.65027 13.1496 9.65027C14.0777 9.65027 14.9678 10.0189 15.6241 10.675L28.0001 23.051L40.3761 10.675C41.0363 10.0375 41.9204 9.68469 42.838 9.69266C43.7557 9.70064 44.6336 10.0687 45.2825 10.7177C45.9314 11.3666 46.2995 12.2444 46.3075 13.1621C46.3155 14.0798 45.9627 14.9639 45.3251 15.624L32.9491 28L45.3251 40.376C45.9627 41.0361 46.3155 41.9202 46.3075 42.8379C46.2995 43.7556 45.9314 44.6335 45.2825 45.2824C44.6336 45.9313 43.7557 46.2994 42.838 46.3074C41.9204 46.3154 41.0363 45.9626 40.3761 45.325L28.0001 32.949L15.6241 45.325C14.964 45.9626 14.0799 46.3154 13.1622 46.3074C12.2446 46.2994 11.3667 45.9313 10.7178 45.2824C10.0688 44.6335 9.70076 43.7556 9.69278 42.8379C9.68481 41.9202 10.0376 41.0361 10.6751 40.376L23.0511 28L10.6751 15.624C10.019 14.9677 9.65039 14.0776 9.65039 13.1495C9.65039 12.2214 10.019 11.3314 10.6751 10.675Z" fill="#DFFF1B"/>
</svg>
