<svg width="220" height="114" viewBox="0 0 220 114" fill="none" xmlns="http://www.w3.org/2000/svg">
<path fill-rule="evenodd" clip-rule="evenodd" d="M104.303 62.3614C102.367 79.9857 90.3901 94.7491 74.013 100.828C79.3365 91.4613 82.9133 77.8024 83.5572 62.3614H104.303ZM115.698 62.3614H183.055L159.606 85.8096C157.64 87.776 157.64 90.9641 159.606 92.9305C161.573 94.8969 164.761 94.8969 166.727 92.9305L198.771 60.8866C200.738 58.9202 200.738 55.7321 198.771 53.7657L166.727 21.7219C164.761 19.7555 161.573 19.7555 159.606 21.7219C157.64 23.6882 157.64 26.8763 159.606 28.8427L183.055 52.291H115.698C118.246 29.0904 138.196 10.8478 162.676 10.8478C188.904 10.8478 209.93 31.7858 209.93 57.3266C209.93 82.8675 188.904 103.806 162.676 103.806C138.195 103.806 118.245 85.5624 115.698 62.3614ZM104.302 52.291H83.5571C82.9132 36.8503 79.3364 23.1918 74.013 13.8253C90.3898 19.9041 102.367 34.6671 104.302 52.291ZM73.4773 52.291C72.9151 39.9429 70.3192 29.2395 66.7291 21.6432C62.3632 12.405 58.2788 10.8945 56.9962 10.8489L56.8485 10.8501C55.5354 10.9165 51.4782 12.4711 47.1434 21.6432C43.5534 29.2395 40.9575 39.9429 40.3953 52.291H73.4773ZM40.3953 62.3614C40.9574 74.7098 43.5533 85.4136 47.1434 93.0101C51.4782 102.182 55.5354 103.737 56.8485 103.803L56.9961 103.804C58.2788 103.759 62.3632 102.248 66.7291 93.0101C70.3193 85.4136 72.9152 74.7098 73.4773 62.3614H40.3953ZM30.3154 62.3614C30.9506 77.595 34.4405 91.0941 39.646 100.448C23.7771 94.1503 12.2414 79.629 10.3453 62.3614H30.3154ZM30.3155 52.291C30.9507 37.0577 34.4406 23.559 39.646 14.205C23.7774 20.5028 12.2418 35.0238 10.3454 52.291H30.3155ZM56.9363 113.876C56.8233 113.876 56.7104 113.874 56.5977 113.871C25.2732 113.488 0 88.3188 0 57.3266C0 26.3345 25.2732 1.16544 56.5977 0.781789C56.7104 0.778828 56.8233 0.777344 56.9363 0.777344C56.9774 0.777344 57.0185 0.77754 57.0596 0.777933C57.1476 0.77754 57.2358 0.777344 57.3239 0.777344C80.9393 0.777344 101.219 14.8644 110 34.9848C118.781 14.8644 139.061 0.777344 162.676 0.777344C194.336 0.777344 220 26.0953 220 57.3266C220 88.558 194.336 113.876 162.676 113.876C139.061 113.876 118.781 99.7889 110 79.6685C101.219 99.7889 80.9393 113.876 57.3239 113.876C57.2699 113.876 57.2159 113.876 57.1619 113.876C57.1278 113.876 57.0937 113.876 57.0596 113.875C57.0185 113.876 56.9774 113.876 56.9363 113.876Z" fill="#DFFF1B"/>
</svg>
