<svg width="78" height="81" viewBox="0 0 78 81" fill="none" xmlns="http://www.w3.org/2000/svg">
<rect width="57.6372" height="54.3245" transform="matrix(0.630896 -0.775868 0.763824 0.645424 0 45.4048)" fill="#DFFF1B"/>
<rect x="0.402391" y="-0.0376342" width="50.9285" height="47.9683" transform="matrix(0.630896 -0.775868 0.763824 0.645424 4.17727 45.1909)" stroke="#0B0705" stroke-width="0.57702"/>
<path d="M31.9414 30.7227L36.6906 30.7227L36.6906 39.5613C36.6906 39.5681 36.6918 39.5748 36.6942 39.5812L38.3071 43.9157C38.3266 43.9681 38.2671 44.0145 38.2211 43.9827L35.2276 41.9144L33.6561 40.743L32.1419 39.5716C31.9411 39.1139 31.9414 38.6385 31.9414 38.6385L31.9414 37.4946L31.9414 30.7227Z" fill="#232323"/>
<path d="M43.7423 56.9998C43.9138 56.1713 38.9423 44.9999 38.9423 44.9999L35.628 46.0284L39.4566 51.8855C39.4566 51.8855 43.5708 57.8284 43.7423 56.9998Z" fill="#232323"/>
<path d="M24.998 27.127L50.3894 27.127C51.1111 27.127 51.6962 27.712 51.6962 28.4338L51.6962 30.0199L51.6962 31.4664L51.6962 32.1896L51.6962 32.5513C51.6962 32.5513 51.6962 32.2429 51.6962 32.9129C51.6962 33.5828 50.9969 34.4285 50.9969 34.4285L47.2738 31.636L47.2738 30.4879L47.2738 30.5302L24.998 30.5302L24.998 27.127Z" fill="#232323"/>
<path d="M41.2267 45.2859C41.0199 44.9826 42.6211 41.7716 42.8839 41.2859C47.2267 33.2573 47.2267 33.2573 47.2267 33.2573L47.2266 33.2573L48.9982 37.4002C48.9982 37.4002 41.6552 45.9145 41.2267 45.2859Z" fill="#232323"/>
<path d="M24.998 27.127L50.3894 27.127C51.1111 27.127 51.6962 27.712 51.6962 28.4338L51.6962 28.4712L24.998 30.1235L24.998 27.127Z" fill="#292929"/>
<path d="M42.8829 41.2854L47.2216 33.2446L48.9971 37.3997L48.1972 38.314L42.8829 41.2854Z" fill="#292929"/>
<path d="M43.7402 56.9998C43.9153 56.1715 38.9406 45.0001 38.9406 45.0001L36.8263 45.6572L39.4549 51.8858C39.4549 51.8858 43.565 57.8281 43.7402 56.9998Z" fill="#292929"/>
<path d="M32.0059 30.7222L36.6904 31.5713L36.6904 39.5608C36.6904 39.5676 36.6916 39.5744 36.694 39.5807L38.3068 43.9153C38.3263 43.9676 38.2667 44.014 38.2208 43.9822L35.2272 41.914L32.0059 30.7222Z" fill="#292929"/>
<path d="M32.4715 40.3676L38.7283 44.7577L34.9286 45.9455L32.4715 40.3676Z" fill="#171717"/>
<path d="M40.459 54.501L42.3945 57.0106L39.088 57.0106L40.459 54.501Z" fill="#171717"/>
<path d="M33.6996 43.1562L38.1289 44.3371L38.7279 44.7574L34.9282 45.9451L33.6996 43.1562Z" fill="#151515"/>
<path d="M40.4579 54.5008L42.3934 57.0104L40.7973 57.0104L39.6847 55.9146L40.4579 54.5008Z" fill="#151515"/>
<path d="M46.9521 31.7331L51.5669 35.1329L49.9997 39.341L46.9521 31.7331Z" fill="#151515"/>
<path d="M31.9414 25.0005L36.6753 25.0005L36.6753 26.8723L31.9414 26.8723L31.9414 25.0005Z" fill="#151515"/>
<path d="M47.334 32.6846L51.5678 35.1334L50.8957 36.9388L47.334 32.6846Z" fill="#171717"/>
</svg>
