<svg width="21" height="21" viewBox="0 0 21 21" fill="none" xmlns="http://www.w3.org/2000/svg">
<path fill-rule="evenodd" clip-rule="evenodd" d="M18.2504 5.31826C18.6904 5.31826 19.1124 5.14346 19.4236 4.83231C19.7347 4.52116 19.9095 4.09916 19.9095 3.65913C19.9095 3.2191 19.7347 2.79709 19.4236 2.48595C19.1124 2.1748 18.6904 2 18.2504 2H17.1222C16.1846 2 15.26 2.21829 14.4214 2.63758C13.5828 3.05687 12.8534 3.66564 12.2908 4.41569L10.2385 7.15325L9.33094 5.33817C8.82929 4.33499 8.0582 3.49133 7.10405 2.90173C6.14991 2.31213 5.05043 1.99989 3.92882 2H3.31826C2.87823 2 2.45622 2.1748 2.14508 2.48595C1.83393 2.79709 1.65913 3.2191 1.65913 3.65913C1.65913 4.09916 1.83393 4.52116 2.14508 4.83231C2.45622 5.14346 2.87823 5.31826 3.31826 5.31826H3.92882C4.96079 5.31826 5.90318 5.90061 6.36276 6.82309L8.01193 10.1198L4.96411 14.1846C4.71066 14.5226 4.38201 14.7969 4.00419 14.9858C3.62637 15.1747 3.20975 15.273 2.78734 15.273H1.65913C1.2191 15.273 0.797095 15.4478 0.485948 15.759C0.174801 16.0701 0 16.4921 0 16.9322C0 17.3722 0.174801 17.7942 0.485948 18.1053C0.797095 18.4165 1.2191 18.5913 1.65913 18.5913H2.78734C3.7249 18.5913 4.64958 18.373 5.48816 17.9537C6.32674 17.5344 7.05618 16.9256 7.61872 16.1756L9.67106 13.438L10.5786 15.2531C11.0802 16.2563 11.8513 17.1 12.8055 17.6896C13.7596 18.2792 14.8591 18.5914 15.9807 18.5913H16.5913C17.0313 18.5913 17.4533 18.4165 17.7645 18.1053C18.0756 17.7942 18.2504 17.3722 18.2504 16.9322C18.2504 16.4921 18.0756 16.0701 17.7645 15.759C17.4533 15.4478 17.0313 15.273 16.5913 15.273H15.9807C15.4753 15.273 14.9799 15.1322 14.55 14.8664C14.1201 14.6006 13.7727 14.2203 13.5468 13.7682L11.8976 10.4715L14.9454 6.40665C15.1989 6.06871 15.5275 5.79443 15.9053 5.60552C16.2832 5.41661 16.6998 5.31826 17.1222 5.31826H18.2504Z" fill="#DFFF1B"/>
</svg>
