<svg xmlns="http://www.w3.org/2000/svg" width="64" height="64" viewBox="0 0 64 64" fill="none">
  <path fill-rule="evenodd" clip-rule="evenodd" d="M9.59961 16C9.59961 15.1514 9.93675 14.3374 10.5369 13.7373C11.137 13.1372 11.9509 12.8 12.7996 12.8H51.1996C52.0483 12.8 52.8622 13.1372 53.4624 13.7373C54.0625 14.3374 54.3996 15.1514 54.3996 16C54.3996 16.8487 54.0625 17.6627 53.4624 18.2628C52.8622 18.8629 52.0483 19.2 51.1996 19.2H12.7996C11.9509 19.2 11.137 18.8629 10.5369 18.2628C9.93675 17.6627 9.59961 16.8487 9.59961 16ZM9.59961 32C9.59961 31.1514 9.93675 30.3374 10.5369 29.7373C11.137 29.1372 11.9509 28.8 12.7996 28.8H31.9996C32.8483 28.8 33.6622 29.1372 34.2624 29.7373C34.8625 30.3374 35.1996 31.1514 35.1996 32C35.1996 32.8487 34.8625 33.6627 34.2624 34.2628C33.6622 34.8629 32.8483 35.2 31.9996 35.2H12.7996C11.9509 35.2 11.137 34.8629 10.5369 34.2628C9.93675 33.6627 9.59961 32.8487 9.59961 32ZM9.59961 48C9.59961 47.1514 9.93675 46.3374 10.5369 45.7373C11.137 45.1372 11.9509 44.8 12.7996 44.8H51.1996C52.0483 44.8 52.8622 45.1372 53.4624 45.7373C54.0625 46.3374 54.3996 47.1514 54.3996 48C54.3996 48.8487 54.0625 49.6627 53.4624 50.2628C52.8622 50.8629 52.0483 51.2 51.1996 51.2H12.7996C11.9509 51.2 11.137 50.8629 10.5369 50.2628C9.93675 49.6627 9.59961 48.8487 9.59961 48Z" fill="#DFFF1B"/>
</svg>