<svg width="72" height="73" viewBox="0 0 72 73" fill="none" xmlns="http://www.w3.org/2000/svg">
<circle cx="36" cy="36.4287" r="36" fill="#DFFF1B"/>
<path d="M36 31.2312C34.727 31.2312 33.5061 31.737 32.6059 32.6371C31.7057 33.5373 31.2 34.7582 31.2 36.0312C31.2 37.3043 31.7057 38.5252 32.6059 39.4254C33.5061 40.3255 34.727 40.8313 36 40.8313C37.273 40.8313 38.4939 40.3255 39.3941 39.4254C40.2943 38.5252 40.8 37.3043 40.8 36.0312C40.8 34.7582 40.2943 33.5373 39.3941 32.6371C38.4939 31.737 37.273 31.2312 36 31.2312ZM36 28.0312C38.1217 28.0312 40.1566 28.8741 41.6569 30.3744C43.1571 31.8747 44 33.9095 44 36.0312C44 38.153 43.1571 40.1878 41.6569 41.6881C40.1566 43.1884 38.1217 44.0312 36 44.0312C33.8783 44.0312 31.8434 43.1884 30.3431 41.6881C28.8429 40.1878 28 38.153 28 36.0312C28 33.9095 28.8429 31.8747 30.3431 30.3744C31.8434 28.8741 33.8783 28.0312 36 28.0312ZM46.4 27.6312C46.4 28.1617 46.1893 28.6704 45.8142 29.0455C45.4391 29.4205 44.9304 29.6313 44.4 29.6313C43.8696 29.6313 43.3609 29.4205 42.9858 29.0455C42.6107 28.6704 42.4 28.1617 42.4 27.6312C42.4 27.1008 42.6107 26.5921 42.9858 26.217C43.3609 25.842 43.8696 25.6312 44.4 25.6312C44.9304 25.6312 45.4391 25.842 45.8142 26.217C46.1893 26.5921 46.4 27.1008 46.4 27.6312ZM36 23.2313C32.0416 23.2313 31.3952 23.2425 29.5536 23.3241C28.2992 23.3833 27.4576 23.5512 26.6768 23.8552C26.0234 24.0952 25.4327 24.4797 24.9488 24.9801C24.448 25.4639 24.063 26.0546 23.8224 26.708C23.5184 27.492 23.3504 28.3321 23.2928 29.5849C23.2096 31.3513 23.1984 31.9689 23.1984 36.0312C23.1984 39.9913 23.2096 40.636 23.2912 42.4776C23.3504 43.7304 23.5184 44.5737 23.8208 45.3529C24.0928 46.0489 24.4128 46.5497 24.944 47.0809C25.4832 47.6185 25.984 47.9401 26.672 48.2057C27.4624 48.5112 28.304 48.6808 29.552 48.7384C31.3184 48.8216 31.936 48.8313 35.9984 48.8313C39.9584 48.8313 40.6032 48.82 42.4448 48.7384C43.696 48.6792 44.5376 48.5113 45.32 48.2089C45.9728 47.9678 46.5633 47.5834 47.048 47.0841C47.5872 46.5465 47.9088 46.0457 48.1744 45.3561C48.4784 44.5688 48.648 43.7272 48.7056 42.476C48.7888 40.7113 48.7984 40.0921 48.7984 36.0312C48.7984 32.0729 48.7872 31.4265 48.7056 29.5849C48.6464 28.3337 48.4768 27.4888 48.1744 26.708C47.9332 26.0553 47.5489 25.4648 47.0496 24.9801C46.566 24.479 45.9752 24.0939 45.3216 23.8536C44.5376 23.5496 43.696 23.3817 42.4448 23.3241C40.68 23.2409 40.064 23.2313 36 23.2313ZM36 20.0312C40.3472 20.0312 40.8896 20.0472 42.5968 20.1272C44.2992 20.2072 45.4608 20.4745 46.48 20.8713C47.536 21.2777 48.4256 21.8281 49.3152 22.7161C50.1288 23.5159 50.7583 24.4834 51.16 25.5512C51.5552 26.5704 51.824 27.732 51.904 29.436C51.9792 31.1417 52 31.684 52 36.0312C52 40.3785 51.984 40.9208 51.904 42.6264C51.824 44.3305 51.5552 45.4904 51.16 46.5112C50.7594 47.5797 50.1298 48.5474 49.3152 49.3465C48.5151 50.1598 47.5477 50.7893 46.48 51.1912C45.4608 51.5865 44.2992 51.8553 42.5968 51.9353C40.8896 52.0105 40.3472 52.0312 36 52.0312C31.6528 52.0312 31.1104 52.0153 29.4032 51.9353C27.7008 51.8553 26.5408 51.5865 25.52 51.1912C24.4517 50.7904 23.484 50.1608 22.6848 49.3465C21.8711 48.5467 21.2415 47.5792 20.84 46.5112C20.4432 45.492 20.176 44.3305 20.096 42.6264C20.0192 40.9208 20 40.3785 20 36.0312C20 31.684 20.016 31.1417 20.096 29.436C20.176 27.732 20.4432 26.5721 20.84 25.5512C21.2404 24.4827 21.8701 23.515 22.6848 22.7161C23.4843 21.902 24.4519 21.2724 25.52 20.8713C26.5392 20.4745 27.6992 20.2072 29.4032 20.1272C31.1104 20.052 31.6528 20.0312 36 20.0312Z" fill="#0B0705"/>
</svg>
