<svg width="7003" height="8020" viewBox="0 0 7003 8020" fill="none" xmlns="http://www.w3.org/2000/svg">
<path d="M1735.6 1430.63H2922.9V3640.29C2922.9 3641.99 2923.2 3643.67 2923.79 3645.27L3327.03 4728.9C3331.9 4741.99 3317.02 4753.58 3305.52 4745.63L2557.14 4228.57L2164.28 3935.71L1785.71 3642.86C1735.51 3528.42 1735.6 3409.59 1735.6 3409.59V3123.62V1430.63Z" fill="#C6C6C6"/>
<path d="M4685.78 8000C4728.65 7792.86 3485.79 5000.01 3485.79 5000.01L2657.22 5257.15L3614.36 6721.43C3614.36 6721.43 4642.9 8207.14 4685.78 8000Z" fill="#C6C6C6"/>
<path d="M-0.00195312 531.752H6347.84C6528.27 531.752 6674.54 678.025 6674.54 858.461V1254.99V1616.61V1797.42V1887.83C6674.54 1887.83 6674.54 1810.74 6674.54 1978.23C6674.54 2145.72 6499.7 2357.15 6499.7 2357.15L5568.93 1659.01V1372V1382.56H-0.00195312V531.752Z" fill="#C6C6C6"/>
<path d="M4057.15 5071.44C4005.46 4995.61 4405.76 4192.86 4471.45 4071.43C5557.17 2064.28 5557.17 2064.28 5557.17 2064.28L5557.15 2064.29L6000.03 3100C6000.03 3100 4164.29 5228.59 4057.15 5071.44Z" fill="#C6C6C6"/>
<path d="M-0.00195312 531.758H6347.84C6528.27 531.758 6674.54 678.03 6674.54 858.466V867.825L-0.00195312 1280.89V531.758Z" fill="#E4E4E4"/>
<path d="M4471.4 4071.43L5556.08 2061.22L5999.97 3100L5799.97 3328.57L4471.4 4071.43Z" fill="#E4E4E4"/>
<path d="M4685.62 7999.93C4729.42 7792.86 3485.74 5000.01 3485.74 5000.01L2957.16 5164.29L3614.31 6721.43C3614.31 6721.43 4641.83 8207 4685.62 7999.93Z" fill="#E4E4E4"/>
<path d="M1751.78 1430.63L2922.91 1642.9V3640.29C2922.91 3641.99 2923.22 3643.68 2923.81 3645.27L3327.02 4728.9C3331.89 4742 3317 4753.58 3305.51 4745.64L2557.13 4228.57L1751.78 1430.63Z" fill="#E4E4E4"/>
<path d="M1867.97 3841.8L3432.17 4939.33L2482.24 5236.26L1867.97 3841.8Z" fill="#ECECEC"/>
<path d="M3864.74 7375.14L4348.63 8002.54L3522.01 8002.54L3864.74 7375.14Z" fill="#ECECEC"/>
<path d="M2175.05 4539.04L3282.37 4834.27L3432.12 4939.34L2482.19 5236.27L2175.05 4539.04Z" fill="white"/>
<path d="M3864.7 7375.13L4348.59 8002.53L3949.56 8002.53L3671.39 7728.57L3864.7 7375.13Z" fill="white"/>
<path d="M5488.05 1683.33L6641.73 2533.28L6249.94 3585.3L5488.05 1683.33Z" fill="white"/>
<path d="M1735.71 0H2919.18V467.941H1735.71V0Z" fill="white"/>
<path d="M5583.37 1921.06L6641.82 2533.26L6473.79 2984.62L5583.37 1921.06Z" fill="#ECECEC"/>
</svg>
