<svg width="470" height="561" viewBox="0 0 470 561" fill="none" xmlns="http://www.w3.org/2000/svg">
<path d="M122.537 101.271H205.965V241.658C205.965 241.658 205.965 262.934 205.965 264.074C205.965 265.785 215.117 284.6 217.398 290.301C224.416 307.841 236.22 335.344 236.22 335.344L180.751 297.01L123.861 253.811C120.334 245.773 122.537 240.28 122.537 240.28V101.271Z" fill="url(#paint0_linear_175_5505)"/>
<path d="M329.757 559.893C329.757 548.398 288.122 457.357 288.122 457.357L243.634 352.449L187.82 368.591L251.28 467.171C251.28 467.171 329.757 571.389 329.757 559.893Z" fill="url(#paint1_linear_175_5505)"/>
<path d="M0.579102 38.1308H446.622C459.301 38.1308 469.579 48.4054 469.579 61.0799V133.386C469.579 133.386 469.579 127.971 469.579 139.736C469.579 151.502 457.294 166.353 457.294 166.353L391.891 117.313V97.1525V97.894H0.579102V38.1308Z" fill="url(#paint2_linear_175_5505)"/>
<path d="M286.411 349.598C278.566 349.598 313.971 281.285 313.971 281.285L336.031 241.658L390.994 139.549L419.872 208.199L353.421 279.245L315.518 320.781C315.518 320.781 290.529 349.598 286.411 349.598Z" fill="url(#paint3_linear_175_5505)"/>
<path d="M0.579102 38.1308H446.622C459.301 38.1308 469.579 48.4054 469.579 61.0799L469.579 61.7373L0.579167 90.7523L0.579102 38.1308Z" fill="url(#paint4_linear_175_5505)"/>
<path d="M313.971 281.285L336.031 241.658L390.994 139.549L419.872 208.199L402.832 226.333L313.971 281.285Z" fill="url(#paint5_linear_175_5505)"/>
<path d="M329.757 559.893C329.757 548.398 288.122 457.357 288.122 457.357L243.634 352.449L208.266 362.787L251.28 467.171C251.28 467.171 329.757 571.389 329.757 559.893Z" fill="url(#paint6_linear_175_5505)"/>
<path d="M123.673 101.271L205.965 116.182L205.965 241.658C205.965 241.658 205.965 262.934 205.965 264.074C205.965 265.785 215.117 284.6 217.398 290.301C224.416 307.841 236.22 335.344 236.22 335.344L180.751 297.01L123.673 101.271Z" fill="url(#paint7_linear_175_5505)"/>
<path d="M131.833 270.639L241.745 347.734L174.997 368.591L131.833 270.639Z" fill="url(#paint8_linear_175_5505)"/>
<path d="M274.147 513.816L302.126 559.893H246.049L274.147 513.816Z" fill="url(#paint9_linear_175_5505)"/>
<path d="M153.414 319.616L231.222 340.353L241.745 347.734L174.997 368.591L153.414 319.616Z" fill="url(#paint10_linear_175_5505)"/>
<path d="M274.147 513.816L302.126 559.893L274.087 559.893L260.098 536.855L274.147 513.816Z" fill="url(#paint11_linear_175_5505)"/>
<path d="M386.211 119.02L467.277 178.724L439.746 252.621L386.211 119.02Z" fill="url(#paint12_linear_175_5505)"/>
<path d="M122.537 0.778809H205.695V33.6486H122.537V0.778809Z" fill="url(#paint13_linear_175_5505)"/>
<path d="M392.903 135.72L467.277 178.724L455.47 210.428L392.903 135.72Z" fill="url(#paint14_linear_175_5505)"/>
<defs>
<linearGradient id="paint0_linear_175_5505" x1="0.0956406" y1="1.23204" x2="469.877" y2="560.141" gradientUnits="userSpaceOnUse">
<stop stop-color="white" stop-opacity="0.6"/>
<stop offset="1" stop-color="white" stop-opacity="0.08"/>
</linearGradient>
<linearGradient id="paint1_linear_175_5505" x1="0.0956406" y1="1.23204" x2="469.877" y2="560.141" gradientUnits="userSpaceOnUse">
<stop stop-color="white" stop-opacity="0.6"/>
<stop offset="1" stop-color="white" stop-opacity="0.08"/>
</linearGradient>
<linearGradient id="paint2_linear_175_5505" x1="0.0956406" y1="1.23204" x2="469.877" y2="560.141" gradientUnits="userSpaceOnUse">
<stop stop-color="white" stop-opacity="0.6"/>
<stop offset="1" stop-color="white" stop-opacity="0.08"/>
</linearGradient>
<linearGradient id="paint3_linear_175_5505" x1="0.0956406" y1="1.23204" x2="469.877" y2="560.141" gradientUnits="userSpaceOnUse">
<stop stop-color="white" stop-opacity="0.6"/>
<stop offset="1" stop-color="white" stop-opacity="0.08"/>
</linearGradient>
<linearGradient id="paint4_linear_175_5505" x1="0.0956406" y1="1.23204" x2="469.877" y2="560.141" gradientUnits="userSpaceOnUse">
<stop stop-color="white" stop-opacity="0.6"/>
<stop offset="1" stop-color="white" stop-opacity="0.08"/>
</linearGradient>
<linearGradient id="paint5_linear_175_5505" x1="0.0956406" y1="1.23204" x2="469.877" y2="560.141" gradientUnits="userSpaceOnUse">
<stop stop-color="white" stop-opacity="0.6"/>
<stop offset="1" stop-color="white" stop-opacity="0.08"/>
</linearGradient>
<linearGradient id="paint6_linear_175_5505" x1="0.0956406" y1="1.23204" x2="469.877" y2="560.141" gradientUnits="userSpaceOnUse">
<stop stop-color="white" stop-opacity="0.6"/>
<stop offset="1" stop-color="white" stop-opacity="0.08"/>
</linearGradient>
<linearGradient id="paint7_linear_175_5505" x1="0.0956406" y1="1.23204" x2="469.877" y2="560.141" gradientUnits="userSpaceOnUse">
<stop stop-color="white" stop-opacity="0.6"/>
<stop offset="1" stop-color="white" stop-opacity="0.08"/>
</linearGradient>
<linearGradient id="paint8_linear_175_5505" x1="0.0956406" y1="1.23204" x2="469.877" y2="560.141" gradientUnits="userSpaceOnUse">
<stop stop-color="white" stop-opacity="0.6"/>
<stop offset="1" stop-color="white" stop-opacity="0.08"/>
</linearGradient>
<linearGradient id="paint9_linear_175_5505" x1="0.0956406" y1="1.23204" x2="469.877" y2="560.141" gradientUnits="userSpaceOnUse">
<stop stop-color="white" stop-opacity="0.6"/>
<stop offset="1" stop-color="white" stop-opacity="0.08"/>
</linearGradient>
<linearGradient id="paint10_linear_175_5505" x1="0.0956406" y1="1.23204" x2="469.877" y2="560.141" gradientUnits="userSpaceOnUse">
<stop stop-color="white" stop-opacity="0.6"/>
<stop offset="1" stop-color="white" stop-opacity="0.08"/>
</linearGradient>
<linearGradient id="paint11_linear_175_5505" x1="0.0956406" y1="1.23204" x2="469.877" y2="560.141" gradientUnits="userSpaceOnUse">
<stop stop-color="white" stop-opacity="0.6"/>
<stop offset="1" stop-color="white" stop-opacity="0.08"/>
</linearGradient>
<linearGradient id="paint12_linear_175_5505" x1="0.0956406" y1="1.23204" x2="469.877" y2="560.141" gradientUnits="userSpaceOnUse">
<stop stop-color="white" stop-opacity="0.6"/>
<stop offset="1" stop-color="white" stop-opacity="0.08"/>
</linearGradient>
<linearGradient id="paint13_linear_175_5505" x1="0.0956406" y1="1.23204" x2="469.877" y2="560.141" gradientUnits="userSpaceOnUse">
<stop stop-color="white" stop-opacity="0.6"/>
<stop offset="1" stop-color="white" stop-opacity="0.08"/>
</linearGradient>
<linearGradient id="paint14_linear_175_5505" x1="0.0956406" y1="1.23204" x2="469.877" y2="560.141" gradientUnits="userSpaceOnUse">
<stop stop-color="white" stop-opacity="0.6"/>
<stop offset="1" stop-color="white" stop-opacity="0.08"/>
</linearGradient>
</defs>
</svg>
