<svg width="1200" height="630" viewBox="0 0 1200 630" fill="none" xmlns="http://www.w3.org/2000/svg">
<g clip-path="url(#clip0_857_724)">
<g clip-path="url(#clip1_857_724)">
<path d="M0 -103H1200V732.911H0V-103Z" fill="url(#paint0_linear_857_724)"/>
<g filter="url(#filter0_b_857_724)">
<path d="M517.784 183.772H578.731V286.366C578.731 286.366 578.731 301.915 578.731 302.748C578.731 303.998 585.418 317.748 587.084 321.915C592.211 334.732 600.834 354.831 600.834 354.831L560.312 326.817L518.751 295.248C516.174 289.374 517.784 285.359 517.784 285.359V183.772Z" fill="url(#paint1_linear_857_724)"/>
<path d="M669.168 518.931C669.168 510.53 638.751 443.998 638.751 443.998L606.251 367.331L565.476 379.128L611.837 451.169C611.837 451.169 669.168 527.331 669.168 518.931Z" fill="url(#paint2_linear_857_724)"/>
<path d="M428.688 137.63H754.543C763.806 137.63 771.314 145.139 771.314 154.401V207.242C771.314 207.242 771.314 203.285 771.314 211.883C771.314 220.481 762.339 231.334 762.339 231.334L714.559 195.496V180.763V181.304H428.688V137.63Z" fill="url(#paint3_linear_857_724)"/>
<path d="M637.501 365.248C631.77 365.248 657.635 315.325 657.635 315.325L673.751 286.366L713.904 211.746L735.001 261.915L686.455 313.835L658.765 344.189C658.765 344.189 640.509 365.248 637.501 365.248Z" fill="url(#paint4_linear_857_724)"/>
<path d="M428.688 137.63H754.543C763.806 137.63 771.314 145.139 771.314 154.401L771.314 154.881L428.688 176.085L428.688 137.63Z" fill="url(#paint5_linear_857_724)"/>
<path d="M657.635 315.325L673.751 286.366L713.904 211.746L735.001 261.915L722.552 275.167L657.635 315.325Z" fill="url(#paint6_linear_857_724)"/>
<path d="M669.168 518.931C669.168 510.53 638.751 443.998 638.751 443.998L606.251 367.331L580.413 374.886L611.837 451.169C611.837 451.169 669.168 527.331 669.168 518.931Z" fill="url(#paint7_linear_857_724)"/>
<path d="M518.613 183.772L578.731 194.669L578.731 286.366C578.731 286.366 578.731 301.915 578.731 302.748C578.731 303.998 585.418 317.748 587.084 321.915C592.211 334.732 600.834 354.831 600.834 354.831L560.312 326.817L518.613 183.772Z" fill="url(#paint8_linear_857_724)"/>
<path d="M524.575 307.546L604.87 363.886L556.108 379.128L524.575 307.546Z" fill="url(#paint9_linear_857_724)"/>
<path d="M628.542 485.257L648.982 518.931H608.015L628.542 485.257Z" fill="url(#paint10_linear_857_724)"/>
<path d="M540.341 343.337L597.183 358.492L604.87 363.886L556.108 379.128L540.341 343.337Z" fill="url(#paint11_linear_857_724)"/>
<path d="M628.542 485.257L648.982 518.931L628.498 518.931L618.278 502.094L628.542 485.257Z" fill="url(#paint12_linear_857_724)"/>
<path d="M710.41 196.744L769.632 240.374L749.52 294.378L710.41 196.744Z" fill="url(#paint13_linear_857_724)"/>
<path d="M517.783 110.333H578.535V134.354H517.783V110.333Z" fill="url(#paint14_linear_857_724)"/>
<path d="M715.299 208.948L769.632 240.374L761.007 263.544L715.299 208.948Z" fill="url(#paint15_linear_857_724)"/>
</g>
<path d="M918.332 87.2319L969.706 61.1008L983.214 81.1362L918.332 87.2319Z" fill="#DFFF1B"/>
<path d="M277.614 58.8231L306.559 35.6643L309.984 75.9813L277.614 58.8231Z" fill="white"/>
<path d="M170.228 492.909L200.119 420.665L220.441 455.953L170.228 492.909Z" stroke="#DFFF1B" stroke-width="0.833333" stroke-dasharray="6.67 6.67"/>
<path d="M998.773 497.765L956.737 470.747L964.184 453.63L998.773 497.765Z" fill="white"/>
<path d="M1216.67 110.333L-16.6641 110.333" stroke="#DFFF1B" stroke-opacity="0.5" stroke-width="0.833333"/>
<path d="M1216.67 138.165L-16.6641 138.165" stroke="#DFFF1B" stroke-opacity="0.5" stroke-width="0.833333"/>
<path d="M1216.67 181.498L-16.6641 181.498" stroke="#DFFF1B" stroke-opacity="0.5" stroke-width="0.833333"/>
<path d="M1216.67 518.998L-16.6641 518.998" stroke="#DFFF1B" stroke-opacity="0.5" stroke-width="0.833333"/>
<path d="M841.632 1062.04L255.535 -318.722" stroke="#DFFF1B" stroke-opacity="0.5" stroke-width="0.833333"/>
<path d="M800.155 823.702L214.059 -557.055" stroke="#DFFF1B" stroke-opacity="0.5" stroke-width="0.833333"/>
<path d="M234.78 798.505L1257.78 -298.525" stroke="#DFFF1B" stroke-opacity="0.5" stroke-width="0.833333"/>
<path d="M517.504 782.331V-217.669" stroke="#DFFF1B" stroke-opacity="0.5" stroke-width="0.833333"/>
<path d="M578.336 782.331V-217.669" stroke="#DFFF1B" stroke-opacity="0.5" stroke-width="0.833333"/>
<path d="M714.168 782.331V-217.669" stroke="#DFFF1B" stroke-opacity="0.5" stroke-width="0.833333"/>
<path d="M771.668 782.331V-217.669" stroke="#DFFF1B" stroke-opacity="0.5" stroke-width="0.833333"/>
<rect x="575" y="107.331" width="6.66667" height="6.66667" fill="#DFFF1B"/>
<rect x="514.168" y="107.331" width="6.66667" height="6.66667" fill="#DFFF1B"/>
<rect x="514.168" y="129.831" width="6.66667" height="6.66667" fill="#DFFF1B"/>
<rect x="575" y="129.831" width="6.66667" height="6.66667" fill="#DFFF1B"/>
<rect x="514.168" y="181.498" width="6.66667" height="6.66667" fill="#DFFF1B"/>
<rect x="575" y="181.498" width="6.66667" height="6.66667" fill="#DFFF1B"/>
<rect x="575" y="299.831" width="6.66667" height="6.66667" fill="#DFFF1B"/>
<rect x="425.832" y="134.831" width="6.66667" height="6.66667" fill="#DFFF1B"/>
<rect x="514.168" y="290.665" width="6.66667" height="6.66667" fill="#DFFF1B"/>
<rect x="710.832" y="178.165" width="6.66667" height="6.66667" fill="#DFFF1B"/>
<rect x="710.832" y="134.831" width="6.66667" height="6.66667" fill="#DFFF1B"/>
<rect x="768.332" y="178.165" width="6.66667" height="6.66667" fill="#DFFF1B"/>
<rect x="710.832" y="278.998" width="6.66667" height="6.66667" fill="#DFFF1B"/>
<rect x="635" y="361.498" width="6.66667" height="6.66667" fill="#DFFF1B"/>
<rect x="606.668" y="515.665" width="6.66667" height="6.66667" fill="#DFFF1B"/>
<rect x="666.668" y="515.665" width="6.66667" height="6.66667" fill="#DFFF1B"/>
<rect x="425" y="178.165" width="6.66667" height="6.66667" fill="#DFFF1B"/>
</g>
<path d="M0 -102.583H1200V-103.417H0V-102.583ZM1200 732.494H0V733.328H1200V732.494Z" fill="#DFFF1B" fill-opacity="0.5"/>
</g>
<defs>
<filter id="filter0_b_857_724" x="382.854" y="64.5" width="434.292" height="500.911" filterUnits="userSpaceOnUse" color-interpolation-filters="sRGB">
<feFlood flood-opacity="0" result="BackgroundImageFix"/>
<feGaussianBlur in="BackgroundImageFix" stdDeviation="22.9167"/>
<feComposite in2="SourceAlpha" operator="in" result="effect1_backgroundBlur_857_724"/>
<feBlend mode="normal" in="SourceGraphic" in2="effect1_backgroundBlur_857_724" result="shape"/>
</filter>
<linearGradient id="paint0_linear_857_724" x1="-4.53522e-06" y1="-102.669" x2="1200" y2="733.165" gradientUnits="userSpaceOnUse">
<stop stop-color="#030402"/>
<stop offset="0.489757" stop-color="#13170B"/>
<stop offset="0.998837" stop-color="#030402"/>
<stop offset="1" stop-color="#030402"/>
</linearGradient>
<linearGradient id="paint1_linear_857_724" x1="428.334" y1="110.665" x2="771.668" y2="518.998" gradientUnits="userSpaceOnUse">
<stop stop-color="white" stop-opacity="0.6"/>
<stop offset="1" stop-color="white" stop-opacity="0.08"/>
</linearGradient>
<linearGradient id="paint2_linear_857_724" x1="428.334" y1="110.665" x2="771.668" y2="518.998" gradientUnits="userSpaceOnUse">
<stop stop-color="white" stop-opacity="0.6"/>
<stop offset="1" stop-color="white" stop-opacity="0.08"/>
</linearGradient>
<linearGradient id="paint3_linear_857_724" x1="428.334" y1="110.665" x2="771.668" y2="518.998" gradientUnits="userSpaceOnUse">
<stop stop-color="white" stop-opacity="0.6"/>
<stop offset="1" stop-color="white" stop-opacity="0.08"/>
</linearGradient>
<linearGradient id="paint4_linear_857_724" x1="428.334" y1="110.665" x2="771.668" y2="518.998" gradientUnits="userSpaceOnUse">
<stop stop-color="white" stop-opacity="0.6"/>
<stop offset="1" stop-color="white" stop-opacity="0.08"/>
</linearGradient>
<linearGradient id="paint5_linear_857_724" x1="428.334" y1="110.665" x2="771.668" y2="518.998" gradientUnits="userSpaceOnUse">
<stop stop-color="white" stop-opacity="0.6"/>
<stop offset="1" stop-color="white" stop-opacity="0.08"/>
</linearGradient>
<linearGradient id="paint6_linear_857_724" x1="428.334" y1="110.665" x2="771.668" y2="518.998" gradientUnits="userSpaceOnUse">
<stop stop-color="white" stop-opacity="0.6"/>
<stop offset="1" stop-color="white" stop-opacity="0.08"/>
</linearGradient>
<linearGradient id="paint7_linear_857_724" x1="428.334" y1="110.665" x2="771.668" y2="518.998" gradientUnits="userSpaceOnUse">
<stop stop-color="white" stop-opacity="0.6"/>
<stop offset="1" stop-color="white" stop-opacity="0.08"/>
</linearGradient>
<linearGradient id="paint8_linear_857_724" x1="428.334" y1="110.665" x2="771.668" y2="518.998" gradientUnits="userSpaceOnUse">
<stop stop-color="white" stop-opacity="0.6"/>
<stop offset="1" stop-color="white" stop-opacity="0.08"/>
</linearGradient>
<linearGradient id="paint9_linear_857_724" x1="428.334" y1="110.665" x2="771.668" y2="518.998" gradientUnits="userSpaceOnUse">
<stop stop-color="white" stop-opacity="0.6"/>
<stop offset="1" stop-color="white" stop-opacity="0.08"/>
</linearGradient>
<linearGradient id="paint10_linear_857_724" x1="428.334" y1="110.665" x2="771.668" y2="518.998" gradientUnits="userSpaceOnUse">
<stop stop-color="white" stop-opacity="0.6"/>
<stop offset="1" stop-color="white" stop-opacity="0.08"/>
</linearGradient>
<linearGradient id="paint11_linear_857_724" x1="428.334" y1="110.665" x2="771.668" y2="518.998" gradientUnits="userSpaceOnUse">
<stop stop-color="white" stop-opacity="0.6"/>
<stop offset="1" stop-color="white" stop-opacity="0.08"/>
</linearGradient>
<linearGradient id="paint12_linear_857_724" x1="428.334" y1="110.665" x2="771.668" y2="518.998" gradientUnits="userSpaceOnUse">
<stop stop-color="white" stop-opacity="0.6"/>
<stop offset="1" stop-color="white" stop-opacity="0.08"/>
</linearGradient>
<linearGradient id="paint13_linear_857_724" x1="428.334" y1="110.665" x2="771.668" y2="518.998" gradientUnits="userSpaceOnUse">
<stop stop-color="white" stop-opacity="0.6"/>
<stop offset="1" stop-color="white" stop-opacity="0.08"/>
</linearGradient>
<linearGradient id="paint14_linear_857_724" x1="428.334" y1="110.665" x2="771.668" y2="518.998" gradientUnits="userSpaceOnUse">
<stop stop-color="white" stop-opacity="0.6"/>
<stop offset="1" stop-color="white" stop-opacity="0.08"/>
</linearGradient>
<linearGradient id="paint15_linear_857_724" x1="428.334" y1="110.665" x2="771.668" y2="518.998" gradientUnits="userSpaceOnUse">
<stop stop-color="white" stop-opacity="0.6"/>
<stop offset="1" stop-color="white" stop-opacity="0.08"/>
</linearGradient>
<clipPath id="clip0_857_724">
<rect width="1200" height="630" fill="white"/>
</clipPath>
<clipPath id="clip1_857_724">
<path d="M0 -103H1200V732.911H0V-103Z" fill="white"/>
</clipPath>
</defs>
</svg>
