<svg width="1200" height="675" viewBox="0 0 1200 675" fill="none" xmlns="http://www.w3.org/2000/svg">
<g clip-path="url(#clip0_859_725)">
<g clip-path="url(#clip1_859_725)">
<path d="M0 -80H1200V755.911H0V-80Z" fill="url(#paint0_linear_859_725)"/>
<g filter="url(#filter0_b_859_725)">
<path d="M517.784 206.772H578.731V309.366C578.731 309.366 578.731 324.915 578.731 325.748C578.731 326.998 585.418 340.748 587.084 344.915C592.211 357.732 600.834 377.831 600.834 377.831L560.312 349.817L518.751 318.248C516.174 312.374 517.784 308.359 517.784 308.359V206.772Z" fill="url(#paint1_linear_859_725)"/>
<path d="M669.168 541.931C669.168 533.53 638.751 466.998 638.751 466.998L606.251 390.331L565.476 402.128L611.837 474.169C611.837 474.169 669.168 550.331 669.168 541.931Z" fill="url(#paint2_linear_859_725)"/>
<path d="M428.688 160.63H754.543C763.806 160.63 771.314 168.139 771.314 177.401V230.242C771.314 230.242 771.314 226.285 771.314 234.883C771.314 243.481 762.339 254.334 762.339 254.334L714.559 218.496V203.763V204.304H428.688V160.63Z" fill="url(#paint3_linear_859_725)"/>
<path d="M637.501 388.248C631.77 388.248 657.635 338.325 657.635 338.325L673.751 309.366L713.904 234.746L735.001 284.915L686.455 336.835L658.765 367.189C658.765 367.189 640.509 388.248 637.501 388.248Z" fill="url(#paint4_linear_859_725)"/>
<path d="M428.688 160.63H754.543C763.806 160.63 771.314 168.139 771.314 177.401L771.314 177.881L428.688 199.085L428.688 160.63Z" fill="url(#paint5_linear_859_725)"/>
<path d="M657.635 338.325L673.751 309.366L713.904 234.746L735.001 284.915L722.552 298.167L657.635 338.325Z" fill="url(#paint6_linear_859_725)"/>
<path d="M669.168 541.931C669.168 533.53 638.751 466.998 638.751 466.998L606.251 390.331L580.413 397.886L611.837 474.169C611.837 474.169 669.168 550.331 669.168 541.931Z" fill="url(#paint7_linear_859_725)"/>
<path d="M518.613 206.772L578.731 217.669L578.731 309.366C578.731 309.366 578.731 324.915 578.731 325.748C578.731 326.998 585.418 340.748 587.084 344.915C592.211 357.732 600.834 377.831 600.834 377.831L560.312 349.817L518.613 206.772Z" fill="url(#paint8_linear_859_725)"/>
<path d="M524.575 330.546L604.87 386.886L556.108 402.128L524.575 330.546Z" fill="url(#paint9_linear_859_725)"/>
<path d="M628.542 508.257L648.982 541.931H608.015L628.542 508.257Z" fill="url(#paint10_linear_859_725)"/>
<path d="M540.341 366.337L597.183 381.492L604.87 386.886L556.108 402.128L540.341 366.337Z" fill="url(#paint11_linear_859_725)"/>
<path d="M628.542 508.257L648.982 541.931L628.498 541.931L618.278 525.094L628.542 508.257Z" fill="url(#paint12_linear_859_725)"/>
<path d="M710.41 219.744L769.632 263.374L749.52 317.378L710.41 219.744Z" fill="url(#paint13_linear_859_725)"/>
<path d="M517.783 133.333H578.535V157.354H517.783V133.333Z" fill="url(#paint14_linear_859_725)"/>
<path d="M715.299 231.948L769.632 263.374L761.007 286.544L715.299 231.948Z" fill="url(#paint15_linear_859_725)"/>
</g>
<path d="M918.332 110.232L969.706 84.1008L983.214 104.136L918.332 110.232Z" fill="#DFFF1B"/>
<path d="M277.614 81.8231L306.559 58.6643L309.984 98.9813L277.614 81.8231Z" fill="white"/>
<path d="M170.228 515.909L200.119 443.665L220.441 478.953L170.228 515.909Z" stroke="#DFFF1B" stroke-width="0.833333" stroke-dasharray="6.67 6.67"/>
<path d="M998.773 520.765L956.737 493.747L964.184 476.63L998.773 520.765Z" fill="white"/>
<path d="M506.163 665.287L440.97 727.815L435.452 678.073L506.163 665.287Z" fill="#DFFF1B"/>
<path d="M1216.67 133.333L-16.6641 133.333" stroke="#DFFF1B" stroke-opacity="0.5" stroke-width="0.833333"/>
<path d="M1216.67 161.165L-16.6641 161.165" stroke="#DFFF1B" stroke-opacity="0.5" stroke-width="0.833333"/>
<path d="M1216.67 204.498L-16.6641 204.498" stroke="#DFFF1B" stroke-opacity="0.5" stroke-width="0.833333"/>
<path d="M1216.67 541.998L-16.6641 541.998" stroke="#DFFF1B" stroke-opacity="0.5" stroke-width="0.833333"/>
<path d="M841.632 1085.04L255.535 -295.722" stroke="#DFFF1B" stroke-opacity="0.5" stroke-width="0.833333"/>
<path d="M800.155 846.702L214.059 -534.055" stroke="#DFFF1B" stroke-opacity="0.5" stroke-width="0.833333"/>
<path d="M234.78 821.505L1257.78 -275.525" stroke="#DFFF1B" stroke-opacity="0.5" stroke-width="0.833333"/>
<path d="M517.504 805.331V-194.669" stroke="#DFFF1B" stroke-opacity="0.5" stroke-width="0.833333"/>
<path d="M578.336 805.331V-194.669" stroke="#DFFF1B" stroke-opacity="0.5" stroke-width="0.833333"/>
<path d="M714.168 805.331V-194.669" stroke="#DFFF1B" stroke-opacity="0.5" stroke-width="0.833333"/>
<path d="M771.668 805.331V-194.669" stroke="#DFFF1B" stroke-opacity="0.5" stroke-width="0.833333"/>
<rect x="575" y="130.331" width="6.66667" height="6.66667" fill="#DFFF1B"/>
<rect x="514.168" y="130.331" width="6.66667" height="6.66667" fill="#DFFF1B"/>
<rect x="514.168" y="152.831" width="6.66667" height="6.66667" fill="#DFFF1B"/>
<rect x="575" y="152.831" width="6.66667" height="6.66667" fill="#DFFF1B"/>
<rect x="514.168" y="204.498" width="6.66667" height="6.66667" fill="#DFFF1B"/>
<rect x="575" y="204.498" width="6.66667" height="6.66667" fill="#DFFF1B"/>
<rect x="575" y="322.831" width="6.66667" height="6.66667" fill="#DFFF1B"/>
<rect x="425.832" y="157.831" width="6.66667" height="6.66667" fill="#DFFF1B"/>
<rect x="514.168" y="313.665" width="6.66667" height="6.66667" fill="#DFFF1B"/>
<rect x="710.832" y="201.165" width="6.66667" height="6.66667" fill="#DFFF1B"/>
<rect x="710.832" y="157.831" width="6.66667" height="6.66667" fill="#DFFF1B"/>
<rect x="768.332" y="201.165" width="6.66667" height="6.66667" fill="#DFFF1B"/>
<rect x="710.832" y="301.998" width="6.66667" height="6.66667" fill="#DFFF1B"/>
<rect x="635" y="384.498" width="6.66667" height="6.66667" fill="#DFFF1B"/>
<rect x="606.668" y="538.665" width="6.66667" height="6.66667" fill="#DFFF1B"/>
<rect x="666.668" y="538.665" width="6.66667" height="6.66667" fill="#DFFF1B"/>
<rect x="425" y="201.165" width="6.66667" height="6.66667" fill="#DFFF1B"/>
</g>
<path d="M0 -79.5833H1200V-80.4167H0V-79.5833ZM1200 755.494H0V756.328H1200V755.494Z" fill="#DFFF1B" fill-opacity="0.5"/>
</g>
<defs>
<filter id="filter0_b_859_725" x="382.854" y="87.5" width="434.292" height="500.911" filterUnits="userSpaceOnUse" color-interpolation-filters="sRGB">
<feFlood flood-opacity="0" result="BackgroundImageFix"/>
<feGaussianBlur in="BackgroundImageFix" stdDeviation="22.9167"/>
<feComposite in2="SourceAlpha" operator="in" result="effect1_backgroundBlur_859_725"/>
<feBlend mode="normal" in="SourceGraphic" in2="effect1_backgroundBlur_859_725" result="shape"/>
</filter>
<linearGradient id="paint0_linear_859_725" x1="-4.53522e-06" y1="-79.6688" x2="1200" y2="756.165" gradientUnits="userSpaceOnUse">
<stop stop-color="#030402"/>
<stop offset="0.489757" stop-color="#13170B"/>
<stop offset="0.998837" stop-color="#030402"/>
<stop offset="1" stop-color="#030402"/>
</linearGradient>
<linearGradient id="paint1_linear_859_725" x1="428.334" y1="133.665" x2="771.668" y2="541.998" gradientUnits="userSpaceOnUse">
<stop stop-color="white" stop-opacity="0.6"/>
<stop offset="1" stop-color="white" stop-opacity="0.08"/>
</linearGradient>
<linearGradient id="paint2_linear_859_725" x1="428.334" y1="133.665" x2="771.668" y2="541.998" gradientUnits="userSpaceOnUse">
<stop stop-color="white" stop-opacity="0.6"/>
<stop offset="1" stop-color="white" stop-opacity="0.08"/>
</linearGradient>
<linearGradient id="paint3_linear_859_725" x1="428.334" y1="133.665" x2="771.668" y2="541.998" gradientUnits="userSpaceOnUse">
<stop stop-color="white" stop-opacity="0.6"/>
<stop offset="1" stop-color="white" stop-opacity="0.08"/>
</linearGradient>
<linearGradient id="paint4_linear_859_725" x1="428.334" y1="133.665" x2="771.668" y2="541.998" gradientUnits="userSpaceOnUse">
<stop stop-color="white" stop-opacity="0.6"/>
<stop offset="1" stop-color="white" stop-opacity="0.08"/>
</linearGradient>
<linearGradient id="paint5_linear_859_725" x1="428.334" y1="133.665" x2="771.668" y2="541.998" gradientUnits="userSpaceOnUse">
<stop stop-color="white" stop-opacity="0.6"/>
<stop offset="1" stop-color="white" stop-opacity="0.08"/>
</linearGradient>
<linearGradient id="paint6_linear_859_725" x1="428.334" y1="133.665" x2="771.668" y2="541.998" gradientUnits="userSpaceOnUse">
<stop stop-color="white" stop-opacity="0.6"/>
<stop offset="1" stop-color="white" stop-opacity="0.08"/>
</linearGradient>
<linearGradient id="paint7_linear_859_725" x1="428.334" y1="133.665" x2="771.668" y2="541.998" gradientUnits="userSpaceOnUse">
<stop stop-color="white" stop-opacity="0.6"/>
<stop offset="1" stop-color="white" stop-opacity="0.08"/>
</linearGradient>
<linearGradient id="paint8_linear_859_725" x1="428.334" y1="133.665" x2="771.668" y2="541.998" gradientUnits="userSpaceOnUse">
<stop stop-color="white" stop-opacity="0.6"/>
<stop offset="1" stop-color="white" stop-opacity="0.08"/>
</linearGradient>
<linearGradient id="paint9_linear_859_725" x1="428.334" y1="133.665" x2="771.668" y2="541.998" gradientUnits="userSpaceOnUse">
<stop stop-color="white" stop-opacity="0.6"/>
<stop offset="1" stop-color="white" stop-opacity="0.08"/>
</linearGradient>
<linearGradient id="paint10_linear_859_725" x1="428.334" y1="133.665" x2="771.668" y2="541.998" gradientUnits="userSpaceOnUse">
<stop stop-color="white" stop-opacity="0.6"/>
<stop offset="1" stop-color="white" stop-opacity="0.08"/>
</linearGradient>
<linearGradient id="paint11_linear_859_725" x1="428.334" y1="133.665" x2="771.668" y2="541.998" gradientUnits="userSpaceOnUse">
<stop stop-color="white" stop-opacity="0.6"/>
<stop offset="1" stop-color="white" stop-opacity="0.08"/>
</linearGradient>
<linearGradient id="paint12_linear_859_725" x1="428.334" y1="133.665" x2="771.668" y2="541.998" gradientUnits="userSpaceOnUse">
<stop stop-color="white" stop-opacity="0.6"/>
<stop offset="1" stop-color="white" stop-opacity="0.08"/>
</linearGradient>
<linearGradient id="paint13_linear_859_725" x1="428.334" y1="133.665" x2="771.668" y2="541.998" gradientUnits="userSpaceOnUse">
<stop stop-color="white" stop-opacity="0.6"/>
<stop offset="1" stop-color="white" stop-opacity="0.08"/>
</linearGradient>
<linearGradient id="paint14_linear_859_725" x1="428.334" y1="133.665" x2="771.668" y2="541.998" gradientUnits="userSpaceOnUse">
<stop stop-color="white" stop-opacity="0.6"/>
<stop offset="1" stop-color="white" stop-opacity="0.08"/>
</linearGradient>
<linearGradient id="paint15_linear_859_725" x1="428.334" y1="133.665" x2="771.668" y2="541.998" gradientUnits="userSpaceOnUse">
<stop stop-color="white" stop-opacity="0.6"/>
<stop offset="1" stop-color="white" stop-opacity="0.08"/>
</linearGradient>
<clipPath id="clip0_859_725">
<rect width="1200" height="675" fill="white"/>
</clipPath>
<clipPath id="clip1_859_725">
<path d="M0 -80H1200V755.911H0V-80Z" fill="white"/>
</clipPath>
</defs>
</svg>
